<svg width="543" height="557" viewBox="0 0 543 557" fill="none" xmlns="http://www.w3.org/2000/svg">
<rect width="543" height="557" fill="#FF8507"/>
<circle cx="271.5" cy="278.5" r="258.5" stroke="white" stroke-width="4"/>
<path d="M142 308.4C129.2 308.4 122.8 307.333 122.8 305.2C122.8 304 123.8 303.4 125.8 303.4H129C129.533 303.533 130.067 303.6 130.6 303.6C131.267 303.6 131.933 303.6 132.6 303.6C146.067 303.6 158.6 301.533 170.2 297.4C182.067 293.133 191.8 287.933 199.4 281.8C207.133 275.4 213.2 268.6 217.6 261.4C222.133 254.067 224.4 247.133 224.4 240.6C224.4 230.333 220.333 222.2 212.2 216.2C207.533 212.733 202.533 210.333 197.2 209C192 207.667 186.533 207 180.8 207H179.4C170.333 207 159.333 208.6 146.4 211.8C133.6 215 118.933 219.667 102.4 225.8C99.6 225.8 98.2 223.733 98.2 219.6C98.2 218.267 98.8 217.333 100 216.8C100.667 216.533 101.8 216.133 103.4 215.6C105 214.933 107.667 214.067 111.4 213C123.4 209.4 134.933 206.733 146 205C157.067 203.133 167.467 202.2 177.2 202.2C192.8 202.2 205.733 205.933 216 213.4C226.133 220.733 231.2 230.667 231.2 243.2C231.2 250.8 229 258.467 224.6 266.2C220.333 273.933 214.4 280.933 206.8 287.2C199.2 293.6 189.733 298.667 178.4 302.4C167.067 306.4 154.933 308.4 142 308.4ZM118.4 317.6C116.267 317.6 114.533 316.333 113.2 313.8C111.867 311.4 111.2 307.867 111.2 303.2C111.2 286.8 120.533 262.133 139.2 229.2C139.2 228.667 139.867 227.267 141.2 225C142.667 222.733 143.867 220.733 144.8 219C146.533 215.667 148.133 214 149.6 214C151.067 214 152.733 214.4 154.6 215.2C156.467 215.867 157.4 216.6 157.4 217.4C155.667 220.333 153.867 223.267 152 226.2C150.267 229.133 148.467 232.067 146.6 235C126.2 270.333 116 294.467 116 307.4C116 309 116.467 310.933 117.4 313.2C118.333 315.467 118.8 316.867 118.8 317.4L118.4 317.6ZM248.867 305.2C237.534 305.2 231.867 299.933 231.867 289.4C231.867 281.267 235.867 271.4 243.867 259.8C252.134 248.2 260.001 242.4 267.467 242.4C270.667 242.4 273.467 243.467 275.867 245.6C278.401 247.6 279.667 250.067 279.667 253C279.667 257.933 276.534 262.933 270.267 268C264.134 272.933 258.067 275.4 252.067 275.4C250.867 275.4 250.267 275.133 250.267 274.6L250.867 273.6C266.201 268.8 273.867 260.933 273.867 250C273.867 248.4 273.334 247.6 272.267 247.6C270.801 247.6 268.134 249.133 264.267 252.2C260.934 254.867 257.801 257.933 254.867 261.4C252.067 264.867 249.534 268.467 247.267 272.2C242.467 280.333 240.067 287.133 240.067 292.6C240.067 297.933 242.134 300.6 246.267 300.6C251.067 300.6 256.334 298.133 262.067 293.2C263.934 291.467 265.934 289.533 268.067 287.4C270.201 285.133 272.534 282.667 275.067 280C280.001 274.667 282.601 272 282.867 272C283.667 272 284.067 272.333 284.067 273C284.067 273.533 283.934 274.067 283.667 274.6C269.667 295 258.067 305.2 248.867 305.2ZM293.147 304.8C286.747 304.8 283.547 299.467 283.547 288.8C283.547 282 285.68 270.8 289.947 255.2C294.214 239.467 299.614 225 306.147 211.8C312.814 198.333 318.68 191.6 323.747 191.6C326.68 191.6 329.614 192.6 332.547 194.6C335.48 196.467 336.947 198.533 336.947 200.8C336.947 210.4 322.814 231.733 294.547 264.8C293.48 269.733 292.614 274.333 291.947 278.6C291.414 282.867 291.147 286.867 291.147 290.6C291.147 297.933 292.747 301.6 295.947 301.6L299.147 300.6C299.814 300.6 300.147 300.933 300.147 301.6C300.147 303.733 297.814 304.8 293.147 304.8ZM295.947 259.6C320.08 228.133 332.147 208.333 332.147 200.2C332.147 198.6 331.68 197.8 330.747 197.8C326.747 197.8 320.947 204.933 313.347 219.2C305.747 233.467 299.947 246.933 295.947 259.6ZM340.402 233.2C337.468 233.2 335.068 232.4 333.202 230.8C335.735 229.067 338.402 226.8 341.202 224C344.135 221.2 347.135 217.867 350.202 214C350.468 214 350.602 214.333 350.602 215L349.602 220.8C348.935 224.933 347.735 228.067 346.002 230.2C344.268 232.2 342.402 233.2 340.402 233.2ZM321.202 306C316.135 306 313.602 302.333 313.602 295C313.602 283.933 317.602 269.333 325.602 251.2C325.602 250.667 325.935 249.667 326.602 248.2C327.402 246.733 328.002 245.8 328.402 245.4C329.335 244.467 330.602 244 332.202 244C336.868 244 339.402 244.933 339.802 246.8C337.668 250.267 335.602 254.267 333.602 258.8C331.735 263.333 329.868 268.333 328.002 273.8C326.002 279.667 324.535 284.533 323.602 288.4C322.802 292.133 322.402 295.133 322.402 297.4C322.402 300.733 323.268 302.4 325.002 302.4C326.202 302.4 327.735 301.667 329.602 300.2C331.068 299 332.068 298.133 332.602 297.6C333.268 297.067 333.868 296.6 334.402 296.2C334.935 296.2 335.202 296.467 335.202 297C335.202 298.467 333.268 300.333 329.402 302.6C325.535 304.867 322.802 306 321.202 306ZM357.461 305.2C346.128 305.2 340.461 299.933 340.461 289.4C340.461 281.4 344.461 271.6 352.461 260C360.594 248.267 368.394 242.4 375.861 242.4C378.528 242.4 381.261 243.4 384.061 245.4C386.994 247.267 388.461 249.333 388.461 251.6C388.461 257.867 386.328 261 382.061 261C380.994 261 380.328 260.667 380.061 260C381.661 256.133 382.461 253.067 382.461 250.8C382.461 248.667 381.928 247.6 380.861 247.6C379.394 247.6 376.728 249.133 372.861 252.2C369.528 254.867 366.394 257.933 363.461 261.4C360.661 264.867 358.128 268.467 355.861 272.2C351.061 280.333 348.661 287.133 348.661 292.6C348.661 297.933 350.728 300.6 354.861 300.6C359.661 300.6 364.928 298.133 370.661 293.2C372.528 291.467 374.528 289.533 376.661 287.4C378.794 285.133 381.128 282.667 383.661 280C388.594 274.667 391.194 272 391.461 272C392.261 272 392.661 272.333 392.661 273C392.661 273.533 392.528 274.067 392.261 274.6C378.261 295 366.661 305.2 357.461 305.2ZM366.498 392.2C357.698 392.2 353.298 387.867 353.298 379.2C353.298 368.8 360.832 355.133 375.898 338.2C391.632 320.467 408.765 306.333 427.298 295.8C427.432 295.8 427.498 295.867 427.498 296C427.498 296.667 426.765 297.8 425.298 299.4C380.232 336.867 357.698 363.933 357.698 380.6C357.698 387 360.232 390.2 365.298 390.2C374.098 390.2 384.565 381.8 396.698 365C403.098 356.2 408.898 347.067 414.098 337.6C419.298 328.133 423.965 318.267 428.098 308C432.498 297.333 435.765 287.933 437.898 279.8C440.165 271.667 441.298 264.333 441.298 257.8C441.298 253.133 440.498 249.933 438.898 248.2C421.165 266.733 408.765 282.333 401.698 295C399.565 300.6 397.565 303.4 395.698 303.4C391.698 303.4 389.698 302.2 389.698 299.8C389.698 299 390.365 296.667 391.698 292.8C393.165 288.8 395.165 283.267 397.698 276.2L403.298 260.8C405.298 255.333 406.298 250 406.298 244.8V244C406.298 242.4 406.098 241.533 405.698 241.4C405.432 241.133 404.565 241 403.098 241C401.765 241 401.098 240.667 401.098 240C401.098 238.8 402.165 238.2 404.298 238.2C412.832 238.2 417.098 241.4 417.098 247.8C417.098 250.867 413.098 262.2 405.098 281.8C409.632 275.4 416.365 267.467 425.298 258C434.365 248.4 439.965 243.6 442.098 243.6C442.098 244.667 441.565 245.733 440.498 246.8C446.498 247.333 449.698 248.667 450.098 250.8C450.365 252.533 450.565 254.133 450.698 255.6C450.832 257.067 450.898 258.333 450.898 259.4C450.898 272.2 446.498 289.133 437.698 310.2C427.965 333.133 416.165 352.533 402.298 368.4C388.432 384.267 376.498 392.2 366.498 392.2Z" fill="white"/>
</svg>
