<svg width="86" height="86" viewBox="0 0 86 86" fill="none" xmlns="http://www.w3.org/2000/svg">
<circle cx="43" cy="43" r="42.6699" stroke="#FFA92F" stroke-width="0.660269"/>
<path d="M21.6239 48.1754C19.511 48.1754 18.4546 47.9993 18.4546 47.6472C18.4546 47.4491 18.6197 47.3501 18.9498 47.3501H19.478C19.5661 47.3721 19.6541 47.3831 19.7421 47.3831C19.8522 47.3831 19.9622 47.3831 20.0723 47.3831C22.2952 47.3831 24.364 47.042 26.2788 46.3597C28.2376 45.6554 29.8443 44.797 31.0988 43.7846C32.3753 42.7282 33.3767 41.6057 34.103 40.4173C34.8513 39.2068 35.2254 38.0623 35.2254 36.9839C35.2254 35.2892 34.5542 33.9466 33.2116 32.9562C32.4413 32.384 31.616 31.9878 30.7356 31.7677C29.8773 31.5477 28.9749 31.4376 28.0285 31.4376H27.7974C26.3008 31.4376 24.4851 31.7017 22.3502 32.2299C20.2373 32.7581 17.8164 33.5285 15.0872 34.5409C14.6251 34.5409 14.394 34.1997 14.394 33.5175C14.394 33.2974 14.493 33.1433 14.6911 33.0553C14.8011 33.0112 14.9882 32.9452 15.2523 32.8572C15.5164 32.7471 15.9566 32.6041 16.5729 32.428C18.5537 31.8338 20.4574 31.3936 22.2842 31.1075C24.1109 30.7993 25.8276 30.6453 27.4343 30.6453C30.0093 30.6453 32.1442 31.2615 33.8389 32.494C35.5116 33.7045 36.3479 35.3442 36.3479 37.413C36.3479 38.6676 35.9848 39.9331 35.2585 41.2096C34.5542 42.4861 33.5748 43.6416 32.3203 44.676C31.0658 45.7324 29.5031 46.5688 27.6324 47.185C25.7616 47.8453 23.7588 48.1754 21.6239 48.1754ZM17.7283 49.694C17.3762 49.694 17.0901 49.485 16.87 49.0668C16.6499 48.6706 16.5398 48.0874 16.5398 47.3171C16.5398 44.61 18.0805 40.5383 21.1617 35.1021C21.1617 35.0141 21.2718 34.783 21.4919 34.4088C21.734 34.0347 21.932 33.7045 22.0861 33.4184C22.3722 32.8682 22.6363 32.5931 22.8784 32.5931C23.1205 32.5931 23.3956 32.6591 23.7038 32.7912C24.0119 32.9012 24.1659 33.0223 24.1659 33.1543C23.8798 33.6385 23.5827 34.1227 23.2746 34.6069C22.9885 35.0911 22.6913 35.5753 22.3832 36.0595C19.0158 41.8919 17.3322 45.8755 17.3322 48.0104C17.3322 48.2745 17.4092 48.5936 17.5633 48.9677C17.7173 49.3419 17.7943 49.573 17.7943 49.661L17.7283 49.694ZM39.2642 47.6472C37.3934 47.6472 36.458 46.7779 36.458 45.0391C36.458 43.6966 37.1183 42.0679 38.4388 40.1532C39.8034 38.2384 41.1019 37.281 42.3344 37.281C42.8626 37.281 43.3248 37.4571 43.721 37.8092C44.1392 38.1393 44.3482 38.5465 44.3482 39.0307C44.3482 39.845 43.831 40.6704 42.7966 41.5067C41.7842 42.321 40.7828 42.7282 39.7924 42.7282C39.5943 42.7282 39.4953 42.6842 39.4953 42.5961L39.5943 42.4311C42.1253 41.6388 43.3909 40.3402 43.3909 38.5355C43.3909 38.2714 43.3028 38.1393 43.1267 38.1393C42.8846 38.1393 42.4445 38.3924 41.8062 38.8986C41.256 39.3388 40.7388 39.845 40.2546 40.4173C39.7924 40.9895 39.3742 41.5837 39.0001 42.2C38.2077 43.5425 37.8116 44.665 37.8116 45.5674C37.8116 46.4477 38.1527 46.8879 38.835 46.8879C39.6273 46.8879 40.4967 46.4807 41.4431 45.6664C41.7512 45.3803 42.0813 45.0612 42.4335 44.709C42.7856 44.3349 43.1708 43.9277 43.5889 43.4875C44.4033 42.6072 44.8324 42.167 44.8765 42.167C45.0085 42.167 45.0745 42.222 45.0745 42.332C45.0745 42.4201 45.0525 42.5081 45.0085 42.5961C42.6976 45.9635 40.7828 47.6472 39.2642 47.6472ZM46.5733 47.5812C45.5169 47.5812 44.9887 46.7008 44.9887 44.9401C44.9887 43.8176 45.3408 41.9689 46.0451 39.3938C46.7494 36.7968 47.6407 34.4088 48.7192 32.2299C49.8196 30.007 50.788 28.8956 51.6244 28.8956C52.1085 28.8956 52.5927 29.0606 53.0769 29.3908C53.5611 29.6989 53.8032 30.04 53.8032 30.4142C53.8032 31.9988 51.4703 35.5203 46.8044 40.9785C46.6283 41.7928 46.4853 42.5521 46.3752 43.2564C46.2872 43.9607 46.2432 44.621 46.2432 45.2372C46.2432 46.4477 46.5073 47.053 47.0355 47.053L47.5637 46.8879C47.6737 46.8879 47.7288 46.9429 47.7288 47.053C47.7288 47.4051 47.3436 47.5812 46.5733 47.5812ZM47.0355 40.1201C51.0191 34.926 53.0109 31.6577 53.0109 30.3152C53.0109 30.051 52.9339 29.919 52.7798 29.919C52.1196 29.919 51.1622 31.0965 49.9077 33.4514C48.6531 35.8064 47.6958 38.0293 47.0355 40.1201ZM54.3735 35.7624C53.8893 35.7624 53.4931 35.6303 53.185 35.3662C53.6032 35.0801 54.0434 34.7059 54.5055 34.2438C54.9897 33.7816 55.4849 33.2313 55.9912 32.5931C56.0352 32.5931 56.0572 32.6481 56.0572 32.7581L55.8921 33.7155C55.7821 34.3978 55.584 34.915 55.2979 35.2672C55.0118 35.5973 54.7036 35.7624 54.3735 35.7624ZM51.2042 47.7793C50.3679 47.7793 49.9497 47.174 49.9497 45.9635C49.9497 44.1368 50.61 41.7268 51.9305 38.7336C51.9305 38.6455 51.9855 38.4805 52.0956 38.2384C52.2276 37.9963 52.3267 37.8422 52.3927 37.7762C52.5467 37.6221 52.7558 37.5451 53.0199 37.5451C53.7903 37.5451 54.2084 37.6992 54.2745 38.0073C53.9223 38.5795 53.5812 39.2398 53.251 39.9881C52.9429 40.7364 52.6348 41.5617 52.3267 42.4641C51.9965 43.4325 51.7544 44.2358 51.6004 44.8741C51.4683 45.4903 51.4023 45.9855 51.4023 46.3597C51.4023 46.9099 51.5453 47.185 51.8315 47.185C52.0295 47.185 52.2826 47.064 52.5908 46.8219C52.8329 46.6238 52.9979 46.4807 53.086 46.3927C53.196 46.3047 53.2951 46.2276 53.3831 46.1616C53.4711 46.1616 53.5151 46.2056 53.5151 46.2937C53.5151 46.5358 53.196 46.8439 52.5578 47.218C51.9195 47.5922 51.4683 47.7793 51.2042 47.7793ZM57.1894 47.6472C55.3187 47.6472 54.3833 46.7779 54.3833 45.0391C54.3833 43.7186 55.0436 42.1009 56.3641 40.1862C57.7066 38.2494 58.9942 37.281 60.2267 37.281C60.6669 37.281 61.118 37.4461 61.5802 37.7762C62.0644 38.0843 62.3065 38.4255 62.3065 38.7996C62.3065 39.834 61.9544 40.3512 61.2501 40.3512C61.074 40.3512 60.964 40.2962 60.92 40.1862C61.1841 39.5479 61.3161 39.0417 61.3161 38.6676C61.3161 38.3154 61.2281 38.1393 61.052 38.1393C60.8099 38.1393 60.3697 38.3924 59.7315 38.8986C59.1812 39.3388 58.664 39.845 58.1798 40.4173C57.7177 40.9895 57.2995 41.5837 56.9253 42.2C56.133 43.5425 55.7368 44.665 55.7368 45.5674C55.7368 46.4477 56.078 46.8879 56.7603 46.8879C57.5526 46.8879 58.4219 46.4807 59.3683 45.6664C59.6765 45.3803 60.0066 45.0612 60.3587 44.709C60.7109 44.3349 61.096 43.9277 61.5142 43.4875C62.3285 42.6072 62.7577 42.167 62.8017 42.167C62.9338 42.167 62.9998 42.222 62.9998 42.332C62.9998 42.4201 62.9778 42.5081 62.9338 42.5961C60.6228 45.9635 58.7081 47.6472 57.1894 47.6472ZM58.6812 62.0081C57.2286 62.0081 56.5023 61.2928 56.5023 59.8622C56.5023 58.1455 57.7459 55.8896 60.2329 53.0944C62.8299 50.1672 65.6581 47.8343 68.7173 46.0956C68.7393 46.0956 68.7503 46.1066 68.7503 46.1286C68.7503 46.2386 68.6293 46.4257 68.3872 46.6898C60.9482 52.8743 57.2286 57.3422 57.2286 60.0933C57.2286 61.1497 57.6468 61.6779 58.4832 61.6779C59.9357 61.6779 61.6634 60.2914 63.6663 57.5182C64.7227 56.0656 65.6801 54.558 66.5384 52.9954C67.3968 51.4327 68.1671 49.8041 68.8494 48.1094C69.5757 46.3487 70.1149 44.797 70.467 43.4545C70.8412 42.112 71.0283 40.9015 71.0283 39.823C71.0283 39.0527 70.8962 38.5245 70.6321 38.2384C67.7049 41.2976 65.6581 43.8727 64.4916 45.9635C64.1395 46.8879 63.8093 47.3501 63.5012 47.3501C62.8409 47.3501 62.5108 47.152 62.5108 46.7558C62.5108 46.6238 62.6208 46.2386 62.8409 45.6004C63.083 44.9401 63.4132 44.0267 63.8313 42.8603L64.7557 40.3182C65.0858 39.4159 65.2509 38.5355 65.2509 37.6771V37.5451C65.2509 37.281 65.2179 37.1379 65.1519 37.1159C65.1078 37.0719 64.9648 37.0499 64.7227 37.0499C64.5026 37.0499 64.3926 36.9949 64.3926 36.8848C64.3926 36.6867 64.5686 36.5877 64.9208 36.5877C66.3293 36.5877 67.0336 37.1159 67.0336 38.1723C67.0336 38.6786 66.3734 40.5493 65.0528 43.7846C65.8011 42.7282 66.9126 41.4187 68.3872 39.856C69.8838 38.2714 70.8082 37.4791 71.1603 37.4791C71.1603 37.6551 71.0723 37.8312 70.8962 38.0073C71.8866 38.0953 72.4148 38.3154 72.4808 38.6676C72.5249 38.9537 72.5579 39.2178 72.5799 39.4599C72.6019 39.702 72.6129 39.9111 72.6129 40.0871C72.6129 42.2 71.8866 44.9951 70.434 48.4725C68.8274 52.2581 66.8796 55.4604 64.5906 58.0795C62.3017 60.6985 60.3319 62.0081 58.6812 62.0081Z" fill="white"/>
</svg>
