<svg width="86" height="86" viewBox="0 0 86 86" fill="none" xmlns="http://www.w3.org/2000/svg">
<circle cx="43" cy="43" r="42.6699" stroke="#FFA92F" stroke-width="0.660269"/>
<path d="M21.6239 48.1755C19.511 48.1755 18.4546 47.9995 18.4546 47.6473C18.4546 47.4492 18.6197 47.3502 18.9498 47.3502H19.478C19.5661 47.3722 19.6541 47.3832 19.7421 47.3832C19.8522 47.3832 19.9622 47.3832 20.0723 47.3832C22.2952 47.3832 24.364 47.0421 26.2788 46.3598C28.2376 45.6555 29.8443 44.7972 31.0988 43.7848C32.3753 42.7283 33.3767 41.6059 34.103 40.4174C34.8513 39.2069 35.2254 38.0624 35.2254 36.984C35.2254 35.2893 34.5542 33.9468 33.2116 32.9563C32.4413 32.3841 31.616 31.988 30.7356 31.7679C29.8773 31.5478 28.9749 31.4377 28.0285 31.4377H27.7974C26.3008 31.4377 24.4851 31.7018 22.3502 32.2301C20.2373 32.7583 17.8164 33.5286 15.0872 34.541C14.6251 34.541 14.394 34.1999 14.394 33.5176C14.394 33.2975 14.493 33.1434 14.6911 33.0554C14.8011 33.0114 14.9882 32.9453 15.2523 32.8573C15.5164 32.7473 15.9566 32.6042 16.5729 32.4281C18.5537 31.8339 20.4574 31.3937 22.2842 31.1076C24.1109 30.7995 25.8276 30.6454 27.4343 30.6454C30.0093 30.6454 32.1442 31.2617 33.8389 32.4942C35.5116 33.7047 36.3479 35.3443 36.3479 37.4132C36.3479 38.6677 35.9848 39.9332 35.2585 41.2097C34.5542 42.4862 33.5748 43.6417 32.3203 44.6761C31.0658 45.7325 29.5031 46.5689 27.6324 47.1851C25.7616 47.8454 23.7588 48.1755 21.6239 48.1755ZM17.7283 49.6942C17.3762 49.6942 17.0901 49.4851 16.87 49.0669C16.6499 48.6707 16.5398 48.0875 16.5398 47.3172C16.5398 44.6101 18.0805 40.5384 21.1617 35.1022C21.1617 35.0142 21.2718 34.7831 21.4919 34.4089C21.734 34.0348 21.932 33.7047 22.0861 33.4185C22.3722 32.8683 22.6363 32.5932 22.8784 32.5932C23.1205 32.5932 23.3956 32.6592 23.7038 32.7913C24.0119 32.9013 24.1659 33.0224 24.1659 33.1544C23.8798 33.6386 23.5827 34.1228 23.2746 34.607C22.9885 35.0912 22.6913 35.5754 22.3832 36.0596C19.0158 41.892 17.3322 45.8756 17.3322 48.0105C17.3322 48.2746 17.4092 48.5937 17.5633 48.9679C17.7173 49.342 17.7943 49.5731 17.7943 49.6611L17.7283 49.6942ZM39.2642 47.6473C37.3934 47.6473 36.458 46.778 36.458 45.0393C36.458 43.6967 37.1183 42.0681 38.4388 40.1533C39.8034 38.2385 41.1019 37.2811 42.3344 37.2811C42.8626 37.2811 43.3248 37.4572 43.721 37.8093C44.1392 38.1395 44.3482 38.5466 44.3482 39.0308C44.3482 39.8452 43.831 40.6705 42.7966 41.5068C41.7842 42.3212 40.7828 42.7283 39.7924 42.7283C39.5943 42.7283 39.4953 42.6843 39.4953 42.5963L39.5943 42.4312C42.1253 41.6389 43.3909 40.3404 43.3909 38.5356C43.3909 38.2715 43.3028 38.1395 43.1267 38.1395C42.8846 38.1395 42.4445 38.3926 41.8062 38.8988C41.256 39.3389 40.7388 39.8452 40.2546 40.4174C39.7924 40.9896 39.3742 41.5839 39.0001 42.2001C38.2077 43.5427 37.8116 44.6651 37.8116 45.5675C37.8116 46.4478 38.1527 46.888 38.835 46.888C39.6273 46.888 40.4967 46.4809 41.4431 45.6665C41.7512 45.3804 42.0813 45.0613 42.4335 44.7091C42.7856 44.335 43.1708 43.9278 43.5889 43.4876C44.4033 42.6073 44.8324 42.1671 44.8765 42.1671C45.0085 42.1671 45.0745 42.2221 45.0745 42.3322C45.0745 42.4202 45.0525 42.5082 45.0085 42.5963C42.6976 45.9636 40.7828 47.6473 39.2642 47.6473ZM46.5733 47.5813C45.5169 47.5813 44.9887 46.7009 44.9887 44.9402C44.9887 43.8178 45.3408 41.969 46.0451 39.394C46.7494 36.7969 47.6407 34.4089 48.7192 32.2301C49.8196 30.0071 50.788 28.8957 51.6244 28.8957C52.1085 28.8957 52.5927 29.0608 53.0769 29.3909C53.5611 29.699 53.8032 30.0402 53.8032 30.4143C53.8032 31.999 51.4703 35.5204 46.8044 40.9786C46.6283 41.7929 46.4853 42.5523 46.3752 43.2565C46.2872 43.9608 46.2432 44.6211 46.2432 45.2373C46.2432 46.4478 46.5073 47.0531 47.0355 47.0531L47.5637 46.888C47.6737 46.888 47.7288 46.943 47.7288 47.0531C47.7288 47.4052 47.3436 47.5813 46.5733 47.5813ZM47.0355 40.1203C51.0191 34.9262 53.0109 31.6578 53.0109 30.3153C53.0109 30.0512 52.9339 29.9191 52.7798 29.9191C52.1196 29.9191 51.1622 31.0966 49.9077 33.4515C48.6531 35.8065 47.6958 38.0294 47.0355 40.1203ZM54.3735 35.7625C53.8893 35.7625 53.4931 35.6304 53.185 35.3663C53.6032 35.0802 54.0434 34.7061 54.5055 34.2439C54.9897 33.7817 55.4849 33.2315 55.9912 32.5932C56.0352 32.5932 56.0572 32.6482 56.0572 32.7583L55.8921 33.7157C55.7821 34.3979 55.584 34.9151 55.2979 35.2673C55.0118 35.5974 54.7036 35.7625 54.3735 35.7625ZM51.2042 47.7794C50.3679 47.7794 49.9497 47.1741 49.9497 45.9636C49.9497 44.1369 50.61 41.7269 51.9305 38.7337C51.9305 38.6457 51.9855 38.4806 52.0956 38.2385C52.2276 37.9964 52.3267 37.8423 52.3927 37.7763C52.5467 37.6222 52.7558 37.5452 53.0199 37.5452C53.7903 37.5452 54.2084 37.6993 54.2745 38.0074C53.9223 38.5796 53.5812 39.2399 53.251 39.9882C52.9429 40.7365 52.6348 41.5619 52.3267 42.4642C51.9965 43.4326 51.7544 44.2359 51.6004 44.8742C51.4683 45.4904 51.4023 45.9857 51.4023 46.3598C51.4023 46.91 51.5453 47.1851 51.8315 47.1851C52.0295 47.1851 52.2826 47.0641 52.5908 46.822C52.8329 46.6239 52.9979 46.4809 53.086 46.3928C53.196 46.3048 53.2951 46.2277 53.3831 46.1617C53.4711 46.1617 53.5151 46.2057 53.5151 46.2938C53.5151 46.5359 53.196 46.844 52.5578 47.2182C51.9195 47.5923 51.4683 47.7794 51.2042 47.7794ZM57.1894 47.6473C55.3187 47.6473 54.3833 46.778 54.3833 45.0393C54.3833 43.7187 55.0436 42.1011 56.3641 40.1863C57.7066 38.2495 58.9942 37.2811 60.2267 37.2811C60.6669 37.2811 61.118 37.4462 61.5802 37.7763C62.0644 38.0844 62.3065 38.4256 62.3065 38.7997C62.3065 39.8341 61.9544 40.3514 61.2501 40.3514C61.074 40.3514 60.964 40.2963 60.92 40.1863C61.1841 39.548 61.3161 39.0418 61.3161 38.6677C61.3161 38.3155 61.2281 38.1395 61.052 38.1395C60.8099 38.1395 60.3697 38.3926 59.7315 38.8988C59.1812 39.3389 58.664 39.8452 58.1798 40.4174C57.7177 40.9896 57.2995 41.5839 56.9253 42.2001C56.133 43.5427 55.7368 44.6651 55.7368 45.5675C55.7368 46.4478 56.078 46.888 56.7603 46.888C57.5526 46.888 58.4219 46.4809 59.3683 45.6665C59.6765 45.3804 60.0066 45.0613 60.3587 44.7091C60.7109 44.335 61.096 43.9278 61.5142 43.4876C62.3285 42.6073 62.7577 42.1671 62.8017 42.1671C62.9338 42.1671 62.9998 42.2221 62.9998 42.3322C62.9998 42.4202 62.9778 42.5082 62.9338 42.5963C60.6228 45.9636 58.7081 47.6473 57.1894 47.6473ZM58.6812 62.0082C57.2286 62.0082 56.5023 61.2929 56.5023 59.8623C56.5023 58.1456 57.7459 55.8897 60.2329 53.0945C62.8299 50.1674 65.6581 47.8344 68.7173 46.0957C68.7393 46.0957 68.7503 46.1067 68.7503 46.1287C68.7503 46.2388 68.6293 46.4258 68.3872 46.6899C60.9482 52.8745 57.2286 57.3423 57.2286 60.0934C57.2286 61.1498 57.6468 61.678 58.4832 61.678C59.9357 61.678 61.6634 60.2915 63.6663 57.5183C64.7227 56.0658 65.6801 54.5581 66.5384 52.9955C67.3968 51.4329 68.1671 49.8042 68.8494 48.1095C69.5757 46.3488 70.1149 44.7972 70.467 43.4546C70.8412 42.1121 71.0283 40.9016 71.0283 39.8231C71.0283 39.0528 70.8962 38.5246 70.6321 38.2385C67.7049 41.2977 65.6581 43.8728 64.4916 45.9636C64.1395 46.888 63.8093 47.3502 63.5012 47.3502C62.8409 47.3502 62.5108 47.1521 62.5108 46.756C62.5108 46.6239 62.6208 46.2388 62.8409 45.6005C63.083 44.9402 63.4132 44.0269 63.8313 42.8604L64.7557 40.3183C65.0858 39.416 65.2509 38.5356 65.2509 37.6773V37.5452C65.2509 37.2811 65.2179 37.138 65.1519 37.116C65.1078 37.072 64.9648 37.05 64.7227 37.05C64.5026 37.05 64.3926 36.995 64.3926 36.8849C64.3926 36.6869 64.5686 36.5878 64.9208 36.5878C66.3293 36.5878 67.0336 37.116 67.0336 38.1725C67.0336 38.6787 66.3734 40.5494 65.0528 43.7848C65.8011 42.7283 66.9126 41.4188 68.3872 39.8562C69.8838 38.2715 70.8082 37.4792 71.1603 37.4792C71.1603 37.6553 71.0723 37.8313 70.8962 38.0074C71.8866 38.0954 72.4148 38.3155 72.4808 38.6677C72.5249 38.9538 72.5579 39.2179 72.5799 39.46C72.6019 39.7021 72.6129 39.9112 72.6129 40.0873C72.6129 42.2001 71.8866 44.9952 70.434 48.4727C68.8274 52.2582 66.8796 55.4605 64.5906 58.0796C62.3017 60.6986 60.3319 62.0082 58.6812 62.0082Z" fill="#FFA92F"/>
</svg>
