<svg width="32" height="32" viewBox="0 0 32 32" fill="none" xmlns="http://www.w3.org/2000/svg">
<path opacity="0.15" d="M2.36035 29.56C2.36035 29.7054 2.71316 29.8493 3.39863 29.9835C4.08411 30.1178 5.08882 30.2398 6.35541 30.3426C7.62201 30.4453 9.12567 30.5268 10.7806 30.5825C12.4354 30.6381 14.2091 30.6667 16.0004 30.6667C17.7916 30.6667 19.5653 30.6381 21.2202 30.5825C22.875 30.5268 24.3787 30.4453 25.6453 30.3426C26.9119 30.2398 27.9166 30.1178 28.6021 29.9835C29.2875 29.8493 29.6404 29.7054 29.6404 29.56C29.6404 29.2665 28.2033 28.985 25.6453 28.7775C23.0873 28.57 19.6179 28.4534 16.0004 28.4534C12.3828 28.4534 8.91341 28.57 6.35542 28.7775C3.79742 28.985 2.36035 29.2665 2.36035 29.56Z" fill="#45413C"/>
<path d="M28.8996 20.8933V24.2266C28.8996 26.8933 23.1263 29.02 15.9996 29.02C8.87294 29.02 3.09961 26.8533 3.09961 24.2066V20.8733L28.8996 20.8933Z" fill="#DEBB7E"/>
<path d="M3.09961 22.3666C3.09961 25.0333 8.87294 27.16 15.9996 27.16C23.1263 27.16 28.8996 25.0133 28.8996 22.3666V20.8933H3.09961V22.3666Z" fill="#B89558"/>
<path d="M28.8996 20.8933V24.2266C28.8996 26.8933 23.1263 29.02 15.9996 29.02C8.87294 29.02 3.09961 26.8533 3.09961 24.2066V20.8733L28.8996 20.8933Z" stroke="#45413C" stroke-linecap="round" stroke-linejoin="round"/>
<path d="M16.0001 25.3333C31.8935 25.3333 31.4801 20.1733 29.6401 17.2267C27.7935 14.6267 23.5335 12.4133 16.0001 12.4133C8.46681 12.4133 4.20681 14.6267 2.36015 17.2067C0.520146 20.1533 0.106813 25.3333 16.0001 25.3333Z" fill="#BF8256" stroke="#45413C" stroke-linecap="round" stroke-linejoin="round"/>
<path d="M28.9 15.7334C28.9 15.7334 31.1134 16.4667 31.1134 18.6801C31.1134 20.8934 28.16 19.0467 27.06 19.7867C25.96 20.5267 26.78 22.2134 25.2134 22.7334C23 23.4734 21.8801 21.3401 20.4201 21.6267C18.5801 22.0001 19.3334 23.8401 16.0001 23.8401C12.6667 23.8401 13.4201 22.0001 11.5801 21.6267C10.1334 21.3334 9.00005 23.4734 6.78672 22.7334C5.22005 22.2134 6.04672 20.5201 4.94005 19.7867C3.83339 19.0534 0.886719 20.8934 0.886719 18.6667C0.886719 16.4401 3.10005 15.7334 3.10005 15.7334H28.9Z" fill="#6DD627" stroke="#45413C" stroke-linecap="round" stroke-linejoin="round"/>
<path d="M4.57293 17.2068C4.57293 17.2068 3.34627 19.7534 6.04627 20.5401C8.62627 21.2801 11.2063 19.0668 13.4196 19.0668C15.6329 19.0668 17.6996 22.3268 20.4196 21.6468C23.3729 20.9135 21.8996 19.4401 23.7529 18.7001C25.6063 17.9601 31.8596 20.5401 28.1729 16.1201L4.57293 17.2068Z" fill="#FF6242" stroke="#45413C" stroke-linecap="round" stroke-linejoin="round"/>
<path d="M16.7403 19.4199H10.4736V21.2599C10.4736 21.6507 10.6289 22.0254 10.9052 22.3017C11.1815 22.578 11.5562 22.7333 11.947 22.7333H12.667V24.3933C12.6904 24.7194 12.8365 25.0245 13.0759 25.2472C13.3152 25.47 13.63 25.5938 13.957 25.5938C14.2839 25.5938 14.5987 25.47 14.8381 25.2472C15.0774 25.0245 15.2235 24.7194 15.247 24.3933V21.6266C15.441 21.6275 15.6333 21.59 15.8128 21.5164C15.9924 21.4427 16.1556 21.3343 16.2931 21.1974C16.4306 21.0605 16.5397 20.8978 16.6142 20.7186C16.6886 20.5394 16.727 20.3473 16.727 20.1533L16.7403 19.4199Z" fill="#FFE500" stroke="#45413C" stroke-linecap="round" stroke-linejoin="round"/>
<path d="M28.8996 15.3334C28.8996 18.0001 23.1263 20.1268 15.9996 20.1268C8.87294 20.1268 3.09961 18.0001 3.09961 15.3334C3.09961 15.3334 3.83961 6.86011 15.9996 6.86011C28.1596 6.86011 28.8996 15.3334 28.8996 15.3334Z" fill="#F0D5A8"/>
<path d="M15.9996 17.5733C9.91294 17.5733 4.80628 16.0066 3.45294 13.9C3.28434 14.3638 3.16589 14.8443 3.09961 15.3333C3.09961 18 8.87294 20.1266 15.9996 20.1266C23.1263 20.1266 28.8996 18 28.8996 15.3333C28.8352 14.8352 28.7167 14.3457 28.5463 13.8733C27.1929 16 22.0863 17.5733 15.9996 17.5733Z" fill="#DEBB7E"/>
<path d="M28.8996 15.3334C28.8996 18.0001 23.1263 20.1268 15.9996 20.1268C8.87294 20.1268 3.09961 18.0001 3.09961 15.3334C3.09961 15.3334 3.83961 6.86011 15.9996 6.86011C28.1596 6.86011 28.8996 15.3334 28.8996 15.3334Z" stroke="#45413C" stroke-linecap="round" stroke-linejoin="round"/>
<path d="M8.44006 10.7867C8.25101 10.8382 8.0901 10.9626 7.99261 11.1325C7.89513 11.3025 7.86904 11.5042 7.92006 11.6934C7.94401 11.7872 7.98648 11.8753 8.04496 11.9525C8.10344 12.0297 8.17676 12.0944 8.2606 12.1428C8.34445 12.1913 8.43713 12.2225 8.53321 12.2346C8.62928 12.2467 8.72681 12.2395 8.82006 12.2134L9.53339 12.0001C9.62663 11.9747 9.71395 11.9312 9.79038 11.872C9.8668 11.8129 9.93083 11.7393 9.97881 11.6554C10.0268 11.5715 10.0578 11.479 10.07 11.3831C10.0822 11.2873 10.0754 11.19 10.0501 11.0967C10.0247 11.0035 9.98116 10.9162 9.92203 10.8397C9.86289 10.7633 9.78928 10.6993 9.7054 10.6513C9.62151 10.6033 9.529 10.5723 9.43315 10.5601C9.33729 10.5479 9.23996 10.5547 9.14672 10.5801L8.44006 10.7867ZM12.7467 12.7801C12.6908 12.8692 12.6545 12.9692 12.6403 13.0735C12.6261 13.1778 12.6343 13.2839 12.6643 13.3847C12.6944 13.4856 12.7456 13.5789 12.8145 13.6584C12.8835 13.7379 12.9686 13.8017 13.0643 13.8457C13.1599 13.8897 13.2637 13.9128 13.369 13.9134C13.4742 13.9141 13.5784 13.8923 13.6745 13.8494C13.7707 13.8066 13.8566 13.7438 13.9265 13.6652C13.9964 13.5865 14.0488 13.4939 14.0801 13.3934L14.3801 12.7267C14.4213 12.6393 14.4447 12.5446 14.4489 12.448C14.4531 12.3515 14.438 12.2551 14.4045 12.1644C14.3709 12.0738 14.3197 11.9908 14.2537 11.9202C14.1877 11.8496 14.1082 11.7929 14.0201 11.7534C13.8423 11.6716 13.6394 11.6636 13.4557 11.7311C13.2721 11.7986 13.1226 11.936 13.0401 12.1134L12.7467 12.7801ZM23.5601 10.7867C23.7491 10.8382 23.91 10.9626 24.0075 11.1325C24.105 11.3025 24.1311 11.5042 24.0801 11.6934C24.0561 11.7872 24.0136 11.8753 23.9552 11.9525C23.8967 12.0297 23.8234 12.0944 23.7395 12.1428C23.6557 12.1913 23.563 12.2225 23.4669 12.2346C23.3708 12.2467 23.2733 12.2395 23.1801 12.2134L22.4667 12.0001C22.3735 11.9747 22.2862 11.9312 22.2097 11.872C22.1333 11.8129 22.0693 11.7393 22.0213 11.6554C21.9733 11.5715 21.9423 11.479 21.9301 11.3831C21.9179 11.2873 21.9247 11.19 21.9501 11.0967C21.9754 11.0035 22.019 10.9162 22.0781 10.8397C22.1372 10.7633 22.2108 10.6993 22.2947 10.6513C22.3786 10.6033 22.4711 10.5723 22.567 10.5601C22.6628 10.5479 22.7602 10.5547 22.8534 10.5801L23.5601 10.7867ZM19.2534 12.7801C19.3068 12.9517 19.296 13.1368 19.2228 13.301C19.1497 13.4652 19.0194 13.5972 18.8561 13.6723C18.6928 13.7474 18.5078 13.7605 18.3355 13.7092C18.1633 13.6579 18.0156 13.5456 17.9201 13.3934L17.6201 12.7267C17.5783 12.6378 17.5551 12.5413 17.5517 12.4431C17.5483 12.3449 17.5649 12.247 17.6004 12.1554C17.636 12.0638 17.6897 11.9804 17.7584 11.9101C17.8271 11.8399 17.9093 11.7843 18.0001 11.7467C18.1778 11.665 18.3807 11.657 18.5644 11.7244C18.748 11.7919 18.8975 11.9293 18.9801 12.1067L19.2534 12.7801Z" fill="#DEBB7E" stroke="#45413C" stroke-linecap="round" stroke-linejoin="round"/>
</svg>
