<svg width="32" height="32" viewBox="0 0 32 32" fill="none" xmlns="http://www.w3.org/2000/svg">
<path opacity="0.15" d="M1.72656 29.5067C1.72656 29.659 2.09575 29.8099 2.81306 29.9506C3.53036 30.0913 4.58172 30.2192 5.90713 30.3269C7.23253 30.4346 8.80601 30.5201 10.5377 30.5784C12.2694 30.6367 14.1255 30.6667 15.9999 30.6667C17.8743 30.6667 19.7303 30.6367 21.4621 30.5784C23.1938 30.5201 24.7673 30.4346 26.0927 30.3269C27.4181 30.2192 28.4694 30.0913 29.1867 29.9506C29.904 29.8099 30.2732 29.659 30.2732 29.5067C30.2732 29.199 28.7694 28.904 26.0927 28.6864C23.4159 28.4689 19.7854 28.3467 15.9999 28.3467C12.2144 28.3467 8.58389 28.4689 5.90713 28.6864C3.23036 28.904 1.72656 29.199 1.72656 29.5067Z" fill="#45413C"/>
<path d="M29.5 20.5134V24.0001C29.5 26.7668 23.4533 29.0134 16 29.0134C8.54667 29.0134 2.5 26.7534 2.5 24.0001V20.5134H29.5Z" fill="#DEBB7E"/>
<path d="M2.5 22.0601C2.5 24.8268 8.54667 27.0734 16 27.0734C23.4533 27.0734 29.5 24.8268 29.5 22.0601V20.5134H2.5V22.0601Z" fill="#B89558"/>
<path d="M29.5 20.5134V24.0001C29.5 26.7668 23.4533 29.0134 16 29.0134C8.54667 29.0134 2.5 26.7534 2.5 24.0001V20.5134H29.5Z" stroke="#45413C" stroke-linecap="round" stroke-linejoin="round"/>
<path d="M15.9997 25.1399C32.6663 25.1399 32.1997 19.7399 30.273 16.6599C28.3397 13.9932 23.8797 11.6399 15.9997 11.6399C8.11967 11.6399 3.65967 13.9599 1.72634 16.6666C-0.200331 19.7399 -0.633664 25.1399 15.9997 25.1399Z" fill="#BF8256" stroke="#45413C" stroke-linecap="round" stroke-linejoin="round"/>
<path d="M27.96 19.3933C25.4067 20.7666 21.0067 21.6733 16 21.6733C10.9934 21.6733 6.59337 20.7666 4.04004 19.3933" stroke="#915E3A" stroke-linecap="round" stroke-linejoin="round"/>
<path d="M29.5 14.7268C29.5 17.5001 23.4533 19.7401 16 19.7401C8.54667 19.7401 2.5 17.5001 2.5 14.7268C2.5 14.7268 3.27333 5.86011 16 5.86011C28.7267 5.86011 29.5 14.7268 29.5 14.7268Z" fill="#F0D5A8"/>
<path d="M16 17.04C9.62667 17.04 4.28667 15.4 2.86667 13.1934C2.68811 13.6893 2.56514 14.2036 2.5 14.7267C2.5 17.5 8.54667 19.74 16 19.74C23.4533 19.74 29.5 17.5 29.5 14.7267C29.4349 14.2036 29.3119 13.6893 29.1333 13.1934C27.7133 15.4 22.3733 17.04 16 17.04Z" fill="#DEBB7E"/>
<path d="M29.5 14.7268C29.5 17.5001 23.4533 19.7401 16 19.7401C8.54667 19.7401 2.5 17.5001 2.5 14.7268C2.5 14.7268 3.27333 5.86011 16 5.86011C28.7267 5.86011 29.5 14.7268 29.5 14.7268Z" stroke="#45413C" stroke-linecap="round" stroke-linejoin="round"/>
<path d="M8.08685 9.93993C7.98612 9.96371 7.89119 10.0075 7.80768 10.0686C7.72418 10.1298 7.65379 10.207 7.6007 10.2959C7.54761 10.3847 7.5129 10.4833 7.49861 10.5858C7.48433 10.6884 7.49077 10.7927 7.51754 10.8927C7.54432 10.9926 7.5909 11.0862 7.65451 11.1679C7.71812 11.2495 7.79747 11.3176 7.88786 11.368C7.97826 11.4184 8.07785 11.4501 8.18074 11.4614C8.28363 11.4726 8.38772 11.463 8.48685 11.4333L9.23352 11.2333C9.42613 11.1755 9.58865 11.0449 9.6866 10.8693C9.78456 10.6936 9.81024 10.4867 9.75821 10.2925C9.70618 10.0982 9.58052 9.93189 9.40789 9.82873C9.23526 9.72558 9.02924 9.69372 8.83352 9.73993L8.08685 9.93993ZM12.6002 11.9999C12.5564 12.0919 12.5312 12.1915 12.5259 12.2932C12.5206 12.3949 12.5355 12.4966 12.5695 12.5925C12.6036 12.6885 12.6562 12.7768 12.7243 12.8524C12.7925 12.928 12.8749 12.9895 12.9669 13.0333C13.0588 13.077 13.1584 13.1023 13.2601 13.1075C13.3618 13.1128 13.4635 13.098 13.5595 13.0639C13.6554 13.0299 13.7437 12.9773 13.8193 12.9091C13.895 12.8409 13.9564 12.7585 14.0002 12.6666L14.3202 11.9599C14.364 11.868 14.3892 11.7684 14.3945 11.6667C14.3997 11.565 14.3849 11.4633 14.3509 11.3673C14.3168 11.2714 14.2642 11.1831 14.196 11.1074C14.1278 11.0318 14.0454 10.9704 13.9535 10.9266C13.8616 10.8828 13.7619 10.8576 13.6603 10.8523C13.5586 10.8471 13.4569 10.8619 13.3609 10.8959C13.265 10.93 13.1767 10.9826 13.101 11.0508C13.0254 11.1189 12.964 11.2013 12.9202 11.2933L12.6002 11.9999ZM23.9135 9.93993C24.0142 9.96371 24.1092 10.0075 24.1927 10.0686C24.2762 10.1298 24.3466 10.207 24.3997 10.2959C24.4528 10.3847 24.4875 10.4833 24.5018 10.5858C24.516 10.6884 24.5096 10.7927 24.4828 10.8927C24.456 10.9926 24.4095 11.0862 24.3459 11.1679C24.2823 11.2495 24.2029 11.3176 24.1125 11.368C24.0221 11.4184 23.9225 11.4501 23.8196 11.4614C23.7167 11.4726 23.6127 11.463 23.5135 11.4333L22.7669 11.2333C22.5742 11.1755 22.4117 11.0449 22.3138 10.8693C22.2158 10.6936 22.1901 10.4867 22.2422 10.2925C22.2942 10.0982 22.4198 9.93189 22.5925 9.82873C22.7651 9.72558 22.9711 9.69372 23.1669 9.73993L23.9135 9.93993ZM19.4002 11.9999C19.4886 12.1856 19.4996 12.3988 19.4309 12.5925C19.3621 12.7863 19.2192 12.9449 19.0335 13.0333C18.8479 13.1217 18.6347 13.1327 18.4409 13.0639C18.2471 12.9952 18.0886 12.8523 18.0002 12.6666L17.6802 11.9599C17.6364 11.868 17.6112 11.7684 17.6059 11.6667C17.6006 11.565 17.6155 11.4633 17.6495 11.3673C17.6836 11.2714 17.7362 11.1831 17.8043 11.1074C17.8725 11.0318 17.9549 10.9704 18.0469 10.9266C18.1388 10.8828 18.2384 10.8576 18.3401 10.8523C18.4418 10.8471 18.5435 10.8619 18.6395 10.8959C18.7354 10.93 18.8237 10.9826 18.8993 11.0508C18.975 11.1189 19.0364 11.2013 19.0802 11.2933L19.4002 11.9999Z" fill="#DEBB7E" stroke="#45413C" stroke-linecap="round" stroke-linejoin="round"/>
</svg>
