<svg width="32" height="32" viewBox="0 0 32 32" fill="none" xmlns="http://www.w3.org/2000/svg">
<path opacity="0.15" d="M2.51367 29.5733C2.51367 29.8633 3.93458 30.1414 6.46383 30.3464C8.99307 30.5515 12.4235 30.6666 16.0003 30.6666C19.5772 30.6666 23.0076 30.5515 25.5369 30.3464C28.0661 30.1414 29.487 29.8633 29.487 29.5733C29.487 29.2833 28.0661 29.0052 25.5369 28.8002C23.0076 28.5952 19.5772 28.48 16.0003 28.48C12.4235 28.48 8.99307 28.5952 6.46383 28.8002C3.93458 29.0052 2.51367 29.2833 2.51367 29.5733Z" fill="#45413C"/>
<path d="M28.7602 20.98V24.26C28.7602 26.88 23.0469 29 16.0002 29C8.95357 29 3.24023 26.88 3.24023 24.26V20.98H28.7602Z" fill="#DEBB7E"/>
<path d="M3.24023 22.44C3.24023 25.0533 8.95357 27.18 16.0002 27.18C23.0469 27.18 28.7602 25.0533 28.7602 22.44V20.98H3.24023V22.44Z" fill="#B89558"/>
<path d="M28.7602 20.98V24.26C28.7602 26.88 23.0469 29 16.0002 29C8.95357 29 3.24023 26.88 3.24023 24.26V20.98H28.7602Z" stroke="#45413C" stroke-linecap="round" stroke-linejoin="round"/>
<path d="M15.9999 25.3334C31.7199 25.3334 31.3332 20.2334 29.4866 17.3334C27.6666 14.7868 23.4466 12.6001 15.9999 12.6001C8.55322 12.6001 4.33322 14.7868 2.51322 17.3334C0.666553 20.2534 0.279887 25.3334 15.9999 25.3334Z" fill="#BF8256" stroke="#45413C" stroke-linecap="round" stroke-linejoin="round"/>
<path d="M28.7597 15.8799C28.7597 15.8799 30.9464 16.6066 30.9464 18.7932C30.9464 20.9799 28.0264 19.1599 26.9464 19.8865C25.8664 20.6132 26.6731 22.2865 25.1264 22.8065C22.9397 23.5332 21.7931 21.4265 20.3864 21.7132C18.5664 22.0732 19.2931 23.8999 16.0131 23.8999C12.7331 23.8999 13.4597 22.0732 11.6397 21.7132C10.2064 21.4265 9.08641 23.5332 6.89974 22.8065C5.33307 22.2865 6.15974 20.6199 5.06641 19.8865C3.97307 19.1532 1.06641 20.9799 1.06641 18.7932C1.06641 16.6066 3.25307 15.8799 3.25307 15.8799H28.7597Z" fill="#6DD627" stroke="#45413C" stroke-linecap="round" stroke-linejoin="round"/>
<path d="M28.3934 18.0933H22.1934V20.2533C22.1934 20.6405 22.3472 21.0118 22.621 21.2856C22.8948 21.5594 23.2661 21.7133 23.6534 21.7133H24.38V23.3333C24.4034 23.6559 24.548 23.9578 24.7848 24.1781C25.0217 24.3985 25.3332 24.5209 25.6567 24.5209C25.9802 24.5209 26.2917 24.3985 26.5285 24.1781C26.7654 23.9578 26.91 23.6559 26.9334 23.3333V20.5999C27.3206 20.5999 27.6919 20.4461 27.9657 20.1723C28.2395 19.8985 28.3934 19.5271 28.3934 19.1399V18.0933Z" fill="#FFE500" stroke="#45413C" stroke-linecap="round" stroke-linejoin="round"/>
<path d="M15.9999 20.2534C31.7199 20.2534 31.3332 15.1467 29.4866 12.2534C27.6666 9.68007 23.4466 7.49341 15.9999 7.49341C8.55322 7.49341 4.33322 9.68008 2.51322 12.2334C0.666553 15.1467 0.279887 20.2534 15.9999 20.2534Z" fill="#BF8256" stroke="#45413C" stroke-linecap="round" stroke-linejoin="round"/>
<path d="M28.7597 10.7734C28.7597 10.7734 30.9464 11.5068 30.9464 13.6934C30.9464 15.8801 28.0264 14.0534 26.9464 14.7868C25.8664 15.5201 26.6731 17.1868 25.1264 17.7001C22.9397 18.4268 21.7931 16.3201 20.3864 16.6068C18.5664 16.9734 19.2931 18.7934 16.0131 18.7934C12.7331 18.7934 13.4597 16.9734 11.6397 16.6068C10.2064 16.3201 9.08641 18.4268 6.89974 17.7001C5.33307 17.1868 6.15974 15.5134 5.06641 14.7868C3.97307 14.0601 1.06641 15.8801 1.06641 13.6934C1.06641 11.5068 3.25307 10.7734 3.25307 10.7734H28.7597Z" fill="#6DD627" stroke="#45413C" stroke-linecap="round" stroke-linejoin="round"/>
<path d="M4.70048 12.2332C4.70048 12.2332 3.48715 14.7532 6.16048 15.5132C8.71382 16.2399 11.2605 14.0532 13.4471 14.0532C15.6338 14.0532 17.6805 17.2799 20.3738 16.6066C23.2871 15.8799 21.8338 14.4199 23.6538 13.6932C25.4738 12.9666 31.6538 15.5132 28.0271 11.1399L4.70048 12.2332Z" fill="#FF6242" stroke="#45413C" stroke-linecap="round" stroke-linejoin="round"/>
<path d="M17.8203 14.4199H11.627V16.2399C11.627 16.6271 11.7808 16.9985 12.0546 17.2723C12.3284 17.5461 12.6997 17.6999 13.087 17.6999H13.8136V19.3333C13.8009 19.5087 13.8245 19.6848 13.8829 19.8507C13.9414 20.0166 14.0333 20.1687 14.1531 20.2974C14.2729 20.4262 14.418 20.5289 14.5792 20.5991C14.7404 20.6693 14.9144 20.7056 15.0903 20.7056C15.2662 20.7056 15.4401 20.6693 15.6014 20.5991C15.7626 20.5289 15.9077 20.4262 16.0275 20.2974C16.1472 20.1687 16.2392 20.0166 16.2976 19.8507C16.356 19.6848 16.3796 19.5087 16.367 19.3333V16.5999C16.753 16.5982 17.1227 16.4436 17.395 16.1699C17.6674 15.8963 17.8203 15.526 17.8203 15.1399V14.4199Z" fill="#FFE500" stroke="#45413C" stroke-linecap="round" stroke-linejoin="round"/>
<path d="M28.7602 10.4133C28.7602 13.0267 23.0469 15.1467 16.0002 15.1467C8.95357 15.1467 3.24023 13.0267 3.24023 10.4133C3.24023 10.4133 4.00023 2 16.0002 2C28.0002 2 28.7602 10.4133 28.7602 10.4133Z" fill="#F0D5A8"/>
<path d="M16.0002 12.6C10.0002 12.6 4.9269 11.0466 3.59357 8.95996C3.42286 9.42999 3.30437 9.91736 3.24023 10.4133C3.24023 13.0266 8.95357 15.1466 16.0002 15.1466C23.0469 15.1466 28.7602 13.0266 28.7602 10.4133C28.6961 9.91736 28.5776 9.42999 28.4069 8.95996C27.0736 11.0466 22.0002 12.6 16.0002 12.6Z" fill="#DEBB7E"/>
<path d="M28.7602 10.4133C28.7602 13.0267 23.0469 15.1467 16.0002 15.1467C8.95357 15.1467 3.24023 13.0267 3.24023 10.4133C3.24023 10.4133 4.00023 2 16.0002 2C28.0002 2 28.7602 10.4133 28.7602 10.4133Z" stroke="#45413C" stroke-linecap="round" stroke-linejoin="round"/>
<path d="M8.51999 5.88668C8.33346 5.93707 8.17458 6.0595 8.07831 6.22703C7.98204 6.39457 7.95627 6.59348 8.00666 6.78002C8.05705 6.96655 8.17948 7.12543 8.34701 7.2217C8.51454 7.31797 8.71346 7.34374 8.89999 7.29335L9.60666 7.10668C9.69902 7.08173 9.78557 7.03883 9.86135 6.98043C9.93713 6.92204 10.0007 6.84928 10.0483 6.76633C10.096 6.68338 10.1269 6.59185 10.1392 6.49697C10.1515 6.40209 10.1449 6.30571 10.12 6.21335C10.095 6.12099 10.0521 6.03444 9.99374 5.95866C9.93535 5.88287 9.86259 5.81934 9.77964 5.77167C9.69669 5.724 9.60516 5.69314 9.51028 5.68084C9.4154 5.66855 9.31902 5.67507 9.22666 5.70002L8.51999 5.88668ZM12.7867 7.86002C12.7071 8.03683 12.701 8.238 12.7698 8.41929C12.8386 8.60057 12.9765 8.74712 13.1533 8.82668C13.3301 8.90625 13.5313 8.91232 13.7126 8.84355C13.8939 8.77479 14.0404 8.63683 14.12 8.46002L14.42 7.79335C14.4598 7.7058 14.482 7.61127 14.4853 7.51514C14.4886 7.41901 14.473 7.32317 14.4392 7.2331C14.4055 7.14303 14.3543 7.06048 14.2887 6.99018C14.2231 6.91987 14.1442 6.86318 14.0567 6.82335C13.9691 6.78352 13.8746 6.76131 13.7784 6.75802C13.6823 6.75472 13.5865 6.77038 13.4964 6.80412C13.4063 6.83786 13.3238 6.88901 13.2535 6.95465C13.1832 7.02029 13.1265 7.09913 13.0867 7.18668L12.7867 7.86002ZM23.48 5.88668C23.5724 5.91163 23.6589 5.95453 23.7347 6.01293C23.8105 6.07133 23.874 6.14408 23.9217 6.22703C23.9693 6.30999 24.0002 6.40152 24.0125 6.4964C24.0248 6.59128 24.0183 6.68765 23.9933 6.78002C23.9684 6.87238 23.9255 6.95892 23.8671 7.03471C23.8087 7.11049 23.7359 7.17403 23.653 7.2217C23.57 7.26937 23.4785 7.30023 23.3836 7.31252C23.2887 7.32482 23.1924 7.3183 23.1 7.29335L22.3933 7.10668C22.301 7.08173 22.2144 7.03883 22.1386 6.98043C22.0629 6.92204 21.9993 6.84928 21.9516 6.76633C21.904 6.68338 21.8731 6.59185 21.8608 6.49697C21.8485 6.40209 21.855 6.30571 21.88 6.21335C21.9049 6.12099 21.9478 6.03444 22.0062 5.95866C22.0646 5.88287 22.1374 5.81934 22.2203 5.77167C22.3033 5.724 22.3948 5.69314 22.4897 5.68084C22.5846 5.66855 22.681 5.67507 22.7733 5.70002L23.48 5.88668ZM19.2133 7.86002C19.2527 7.94756 19.2745 8.04201 19.2774 8.13797C19.2803 8.23393 19.2642 8.32953 19.2302 8.41929C19.1961 8.50905 19.1448 8.59123 19.0789 8.66113C19.0131 8.73103 18.9342 8.78729 18.8467 8.82668C18.7591 8.86608 18.6647 8.88785 18.5687 8.89074C18.4727 8.89364 18.3772 8.8776 18.2874 8.84355C18.1976 8.8095 18.1154 8.75811 18.0455 8.6923C17.9756 8.6265 17.9194 8.54756 17.88 8.46002L17.58 7.79335C17.5402 7.7058 17.518 7.61127 17.5147 7.51514C17.5114 7.41901 17.527 7.32317 17.5608 7.2331C17.6289 7.05119 17.7665 6.9038 17.9433 6.82335C18.0309 6.78352 18.1254 6.76131 18.2215 6.75802C18.3177 6.75472 18.4135 6.77038 18.5036 6.80412C18.6855 6.87226 18.8329 7.00987 18.9133 7.18668L19.2133 7.86002Z" fill="#DEBB7E" stroke="#45413C" stroke-linecap="round" stroke-linejoin="round"/>
</svg>
