<svg width="36" height="42" viewBox="0 0 36 42" fill="none" xmlns="http://www.w3.org/2000/svg">
<path d="M34.9938 5.19343C33.5427 1.62074 29.4201 -0.119836 25.7841 1.30507C23.0111 2.39343 21.327 5.00968 21.3257 7.77401H15.1199L12.8133 5.50776C11.0989 3.82238 8.31711 3.8217 6.60211 5.50776L0.5 11.5022L1.43154 12.4176L7.53365 6.42247C8.73442 5.24257 10.681 5.24324 11.8817 6.42247L13.2568 7.77401H11.6946C14.8433 15.0917 5.27077 28.3453 16.4068 30.5725C16.3994 30.5758 16.3907 30.5792 16.3974 30.5819C19.8011 31.7611 19.6194 34.5739 18.5082 37.2218C17.331 40.0265 14.5114 40.538 14.4852 40.5542C14.4017 40.6027 14.3526 40.7561 14.3647 40.9156C14.3802 41.0745 14.4522 41.1923 14.539 41.1923H25.7161C25.8023 41.1923 25.8757 41.0745 25.8891 40.9156C25.9033 40.7561 25.8514 40.6027 25.7686 40.5542C25.7417 40.538 22.9242 40.0265 21.7463 37.2218C20.6351 34.5732 20.454 31.7611 23.8564 30.5819C23.8645 30.5792 23.8544 30.5758 23.847 30.5725C31.9509 28.9524 29.091 21.4933 28.1446 14.7309C29.1323 14.7693 30.1172 14.603 31.0375 14.2423C34.6728 12.818 36.4436 8.76612 34.9938 5.19343ZM20.1276 29.7049C6.05356 29.7049 15.9437 15.579 13.0542 8.39728H13.8915L19.4902 13.8977C18.1413 13.4925 16.7238 13.162 15.1751 13.162C14.9442 13.162 14.712 13.1694 14.4744 13.1849C14.4253 15.7331 13.7105 18.6321 13.4561 21.2254C13.0562 25.313 13.8047 28.6434 20.1269 28.6434C25.3904 28.6434 26.7897 26.3341 26.8812 23.2029C26.9492 20.8512 26.2802 18.0357 25.9517 15.3825C25.8568 15.3865 25.7633 15.3879 25.6684 15.3879C24.5194 15.3879 23.3913 15.12 22.2417 14.772L15.7526 8.39661H21.3512C21.4118 9.05218 21.5646 9.70978 21.8258 10.3526C22.7216 12.5609 24.6392 14.0666 26.8314 14.5606C27.7044 21.6105 30.781 29.7049 20.1276 29.7049ZM25.3648 19.6706L25.5398 19.499C25.6879 20.477 25.809 21.4186 25.8467 22.2956C25.7882 22.297 25.7283 22.2983 25.6677 22.2983C24.2515 22.2983 22.795 21.8225 21.253 21.3183C19.4713 20.7368 17.4514 20.0765 15.1764 20.0765C14.9934 20.0765 14.811 20.0805 14.6272 20.0893C14.7154 19.4586 14.8204 18.8125 14.9287 18.1414C15.1414 16.8269 15.3602 15.4767 15.4551 14.175C17.2886 14.2268 18.9733 14.778 20.6035 15.3118C20.7657 15.365 20.9259 15.4148 21.0874 15.4666L25.3648 19.6706ZM23.6754 16.1794C24.129 16.2703 24.5854 16.3443 25.0505 16.3766C25.1178 16.8343 25.1911 17.288 25.2638 17.7403L23.6754 16.1794ZM25.521 13.1633C25.704 13.1398 25.8265 12.9809 25.9611 12.9742C25.9982 12.9722 26.291 12.3846 26.6436 11.6341C26.6416 11.7909 26.6396 11.9478 26.6423 12.1073C26.4007 12.6848 26.2176 13.1479 26.1913 13.2932C26.1691 13.4265 26.3522 13.5039 26.3953 13.6325C26.4148 13.6924 26.5474 13.7408 26.746 13.7799L26.7796 14.0976C24.7893 13.6002 23.0588 12.2123 22.239 10.1937C22.007 9.61917 21.8592 9.0141 21.8002 8.39728H22.1966C22.2161 9.01584 22.2707 9.51862 22.3568 9.58324C22.5022 9.69228 22.7055 9.66468 22.8044 9.75218C22.8569 9.79728 25.1676 8.96132 26.5588 8.39728H26.9055C25.6064 8.89334 23.2359 9.81209 22.9283 10.0207C22.8159 10.0995 22.8892 10.2805 22.8266 10.3997C22.657 10.7174 25.2241 13.199 25.521 13.1633ZM30.8712 13.8371C29.9852 14.1838 29.0356 14.3382 28.0854 14.2901C28.0686 14.1568 28.0531 14.0235 28.0376 13.8909C29.0654 13.9205 30.2123 13.862 30.3133 13.7355C30.4277 13.5934 30.3981 13.3976 30.4883 13.3006C30.5576 13.2266 28.6979 8.4942 28.5841 8.6591C28.4865 8.79978 28.3472 8.7116 28.2563 8.64901C28.3418 8.35016 28.4387 8.0567 28.5599 7.77401H27.5106C27.5133 7.66834 27.6257 7.55862 27.6391 7.51622C27.6391 7.51622 23.322 5.66795 22.8098 5.5818C22.6732 5.55757 22.5937 5.73593 22.4618 5.77632C22.2794 5.8342 22.1946 6.81959 22.1879 7.77401H21.7692C21.7706 5.18132 23.3489 2.72997 25.9484 1.71026C29.3561 0.374203 33.223 2.00507 34.5819 5.35497C35.9409 8.70353 34.2804 12.5024 30.8712 13.8371Z" fill="#888888"/>
</svg>
