<svg width="31" height="27" viewBox="0 0 31 27" fill="none" xmlns="http://www.w3.org/2000/svg">
<path d="M8.39474 0H22.6053C24.6991 0 26.7071 0.831765 28.1877 2.31232C29.6682 3.79287 30.5 5.80092 30.5 7.89474H0.5C0.5 5.80092 1.33176 3.79287 2.81231 2.31232C4.29287 0.831765 6.30092 0 8.39474 0ZM22.6053 1.57895H8.39474C5.45789 1.57895 2.97895 3.58421 2.28421 6.31579H28.7158C28.0211 3.58421 25.5421 1.57895 22.6053 1.57895ZM30.5 18.9474C30.5 21.0412 29.6682 23.0492 28.1877 24.5298C26.7071 26.0103 24.6991 26.8421 22.6053 26.8421H8.39474C6.30092 26.8421 4.29287 26.0103 2.81231 24.5298C1.33176 23.0492 0.5 21.0412 0.5 18.9474H30.5ZM8.39474 25.2632H22.6053C25.5421 25.2632 28.0211 23.2579 28.7158 20.5263H2.28421C2.97895 23.2579 5.45789 25.2632 8.39474 25.2632ZM17.0789 9.47369L20.2368 12.6316L23.3947 9.47369H27.3421C28.1796 9.47369 28.9829 9.80639 29.5751 10.3986C30.1673 10.9908 30.5 11.7941 30.5 12.6316V14.2105C30.5 15.0481 30.1673 15.8513 29.5751 16.4435C28.9829 17.0357 28.1796 17.3684 27.3421 17.3684H3.65789C2.82037 17.3684 2.01715 17.0357 1.42493 16.4435C0.832706 15.8513 0.5 15.0481 0.5 14.2105V12.6316C0.5 11.7941 0.832706 10.9908 1.42493 10.3986C2.01715 9.80639 2.82037 9.47369 3.65789 9.47369H17.0789ZM20.2368 14.8579L16.4316 11.0526H10.0447H3.65789C3.23913 11.0526 2.83752 11.219 2.54141 11.5151C2.2453 11.8112 2.07895 12.2128 2.07895 12.6316V14.2105C2.07895 14.6293 2.2453 15.0309 2.54141 15.327C2.83752 15.6231 3.23913 15.7895 3.65789 15.7895H27.3421C27.7609 15.7895 28.1625 15.6231 28.4586 15.327C28.7547 15.0309 28.9211 14.6293 28.9211 14.2105V12.6316C28.9211 12.2128 28.7547 11.8112 28.4586 11.5151C28.1625 11.219 27.7609 11.0526 27.3421 11.0526H24.0421L20.2368 14.8579Z" fill="#888888"/>
</svg>
