<svg width="653" height="625" viewBox="0 0 653 625" fill="none" xmlns="http://www.w3.org/2000/svg">
<path fill-rule="evenodd" clip-rule="evenodd" d="M344.182 92.5287C398.432 100.321 446.378 41.4113 500.125 52.1365C561.255 64.335 645.261 92.1071 652.394 154.033C660.448 223.955 540.795 251.95 531.171 321.673C521.447 392.12 623.744 450.543 602.115 518.288C582.451 579.879 500.841 599.199 437.877 613.885C377.015 628.08 307.51 632.827 254.769 599.301C204.287 567.21 213.326 487.172 171.409 444.497C124.772 397.018 25.3254 406.692 3.74136 343.736C-16.7784 283.885 52.6069 231.186 78.4801 173.446C104.588 115.182 95.446 21.3853 156.523 2.78483C224.224 -17.8332 274.129 82.467 344.182 92.5287Z" fill="#FFA92F"/>
</svg>
