<svg width="31" height="26" viewBox="0 0 31 26" fill="none" xmlns="http://www.w3.org/2000/svg">
<path d="M22.9159 7.72198L20.7087 7.95444L21.6721 3.24763C21.7586 2.82352 21.9585 2.43081 22.2506 2.11134C22.5426 1.79186 22.9159 1.55758 23.3305 1.43345L27.7617 0.100968C28.6413 -0.162652 29.528 0.494001 29.528 1.41427C29.528 2.27943 28.6676 2.88335 27.8552 2.58858L27.2393 2.44958L24.7565 3.18532C24.515 3.25717 24.2966 3.391 24.123 3.57348C23.9493 3.75595 23.8265 3.98072 23.7667 4.22542L22.9159 7.72198ZM20.6272 17.7132L19.091 24.2437L17.2241 23.5847L18.3745 17.7132H20.6272Z" fill="#65878D"/>
<path d="M19.5419 22.3262H4.46289V24.3225H19.2016L19.5419 22.3262Z" fill="#65878D"/>
<path d="M0.414755 9.40353L2.19059 18.0598C2.3272 18.7309 2.91675 19.2102 3.59976 19.2102H20.0209C20.1293 19.2103 20.2346 19.1736 20.3194 19.1061C20.4043 19.0386 20.4638 18.9444 20.4882 18.8387L23.3689 6.3743C23.4431 6.05556 23.1843 5.76078 22.8584 5.78954L1.69451 7.68281C1.49282 7.70078 1.29721 7.76117 1.1205 7.86003C0.943795 7.9589 0.789979 8.09399 0.669141 8.25647C0.548303 8.41894 0.463173 8.60513 0.419333 8.80281C0.375493 9.00049 0.373933 9.2052 0.414755 9.40353ZM3.75793 9.66475L4.77886 9.57368C4.87836 9.56473 4.97864 9.5766 5.0733 9.60855C5.16796 9.64049 5.25492 9.69181 5.32865 9.75922C5.40238 9.82664 5.46125 9.90868 5.50152 10.0001C5.54179 10.0915 5.56257 10.1903 5.56253 10.2903V11.4454C5.56253 11.8432 5.24139 12.1643 4.84357 12.1643H3.76992C3.42961 12.1643 3.13483 11.9247 3.06533 11.5892L2.90716 10.8127C2.8792 10.6806 2.87963 10.544 2.9084 10.412C2.93717 10.28 2.99364 10.1557 3.07406 10.0472C3.15449 9.93864 3.25704 9.84843 3.37493 9.78251C3.49282 9.71659 3.62337 9.67645 3.75793 9.66475ZM12.9151 14.0792H14.2764C14.6742 14.0792 14.9953 14.4003 14.9953 14.7982V16.3343C14.9953 16.7322 14.6742 17.0533 14.2764 17.0533H12.9151C12.5173 17.0533 12.1962 16.7322 12.1962 16.3343V14.7982C12.1962 14.4003 12.5173 14.0792 12.9151 14.0792ZM14.2764 12.162H12.9151C12.5173 12.162 12.1962 11.8408 12.1962 11.443V9.56649C12.1962 9.19503 12.4814 8.88348 12.8504 8.84993L14.2117 8.7277C14.3112 8.71875 14.4114 8.73062 14.5061 8.76257C14.6008 8.79451 14.6877 8.84583 14.7614 8.91324C14.8352 8.98066 14.894 9.06269 14.9343 9.15412C14.9746 9.24555 14.9954 9.34437 14.9953 9.44427V11.443C14.9953 11.8408 14.6742 12.162 14.2764 12.162ZM10.2789 14.7982V16.3343C10.2789 16.7322 9.95779 17.0533 9.55997 17.0533H8.19873C7.8009 17.0533 7.47977 16.7322 7.47977 16.3343V14.7982C7.47977 14.4003 7.8009 14.0792 8.19873 14.0792H9.55997C9.95779 14.0792 10.2789 14.4003 10.2789 14.7982ZM9.55997 12.162H8.19873C7.8009 12.162 7.47977 11.8408 7.47977 11.443V9.98829C7.47977 9.61682 7.76496 9.30527 8.13402 9.27172L9.49526 9.1495C9.59476 9.14054 9.69504 9.15241 9.78969 9.18436C9.88435 9.2163 9.97132 9.26762 10.045 9.33504C10.1188 9.40245 10.1777 9.48449 10.2179 9.57592C10.2582 9.66734 10.279 9.76616 10.2789 9.86606V11.443C10.2789 11.8408 9.95779 12.162 9.55997 12.162ZM20.5218 9.10875L19.9442 11.6036C19.9076 11.7617 19.8185 11.9028 19.6914 12.0038C19.5643 12.1048 19.4067 12.1597 19.2444 12.1596H17.6315C17.2337 12.1596 16.9126 11.8384 16.9126 11.4406V9.1447C16.9126 8.77324 17.1978 8.46169 17.5668 8.42814L19.7549 8.23162C20.2438 8.18848 20.632 8.63424 20.5218 9.10875ZM17.9239 17.0533H17.3943C17.1306 17.0533 16.915 16.8376 16.915 16.574V14.7982C16.915 14.4003 17.2361 14.0792 17.6339 14.0792H18.4703C18.9328 14.0792 19.2756 14.5106 19.1701 14.9611L18.8586 16.3128C18.8089 16.5234 18.6896 16.7111 18.52 16.8455C18.3503 16.9799 18.1403 17.0531 17.9239 17.0533ZM3.72199 14.791C3.6453 14.4219 3.92809 14.0768 4.30435 14.0768H4.84357C5.24139 14.0768 5.56253 14.3979 5.56253 14.7958V16.4566C5.56253 16.5346 5.54716 16.6119 5.51729 16.684C5.48742 16.7561 5.44364 16.8216 5.38845 16.8768C5.33326 16.932 5.26774 16.9758 5.19563 17.0057C5.12352 17.0355 5.04624 17.0509 4.96819 17.0509C4.51285 17.0509 4.11981 16.7298 4.02874 16.284L3.72199 14.791Z" fill="#FFA92F"/>
<path d="M18.0503 25.9999C19.5062 25.9999 20.6865 24.8197 20.6865 23.3637C20.6865 21.9078 19.5062 20.7275 18.0503 20.7275C16.5943 20.7275 15.4141 21.9078 15.4141 23.3637C15.4141 24.8197 16.5943 25.9999 18.0503 25.9999Z" fill="#2F2F2F"/>
<path d="M18.0512 24.5931C18.7302 24.5931 19.2806 24.0427 19.2806 23.3637C19.2806 22.6847 18.7302 22.1343 18.0512 22.1343C17.3722 22.1343 16.8218 22.6847 16.8218 23.3637C16.8218 24.0427 17.3722 24.5931 18.0512 24.5931Z" fill="#65878D"/>
<path d="M5.38815 25.9999C6.84408 25.9999 8.02435 24.8197 8.02435 23.3637C8.02435 21.9078 6.84408 20.7275 5.38815 20.7275C3.93222 20.7275 2.75195 21.9078 2.75195 23.3637C2.75195 24.8197 3.93222 25.9999 5.38815 25.9999Z" fill="#2F2F2F"/>
<path d="M5.38763 24.5931C6.06662 24.5931 6.61706 24.0427 6.61706 23.3637C6.61706 22.6847 6.06662 22.1343 5.38763 22.1343C4.70864 22.1343 4.1582 22.6847 4.1582 23.3637C4.1582 24.0427 4.70864 24.5931 5.38763 24.5931Z" fill="#65878D"/>
<path d="M28.3681 3.55168C29.3489 3.55168 30.144 2.75661 30.144 1.77584C30.144 0.79507 29.3489 0 28.3681 0C27.3874 0 26.5923 0.79507 26.5923 1.77584C26.5923 2.75661 27.3874 3.55168 28.3681 3.55168Z" fill="#65878D"/>
</svg>
