<svg width="37" height="38" viewBox="0 0 37 38" fill="none" xmlns="http://www.w3.org/2000/svg">
<path d="M18.5343 27.1785C23.0794 27.1785 26.7639 23.494 26.7639 18.9489C26.7639 14.4038 23.0794 10.7192 18.5343 10.7192C13.9892 10.7192 10.3047 14.4038 10.3047 18.9489C10.3047 23.494 13.9892 27.1785 18.5343 27.1785Z" stroke="#8F8F8F" stroke-width="3.29185" stroke-linecap="round" stroke-linejoin="round"/>
<path d="M18.535 22.2406C17.662 22.2406 16.8247 21.8938 16.2073 21.2764C15.59 20.6591 15.2432 19.8218 15.2432 18.9487" stroke="#888888" stroke-width="3.29185" stroke-linecap="round"/>
<path d="M12.5175 13.0341L2 11.5149L10.9983 2.5166L12.5175 13.0341ZM24.5533 24.967L35.0699 26.4854L26.0716 35.4836L24.5525 24.9662L24.5533 24.967Z" stroke="#8F8F8F" stroke-width="3.29185" stroke-linejoin="round"/>
</svg>
