<svg width="35" height="35" viewBox="0 0 35 35" fill="none" xmlns="http://www.w3.org/2000/svg">
<path d="M10 22.807V23.307H10.5H13.5V34.1128C6.0485 32.3043 0.5 25.5787 0.5 17.5439C0.5 8.13461 8.11732 0.5 17.5 0.5C26.8827 0.5 34.5 8.13461 34.5 17.5439C34.5 26.2008 28.0689 33.3385 19.75 34.4389V23.307H24.5H25V22.807V17.5439V17.0439H24.5H19.75V14.0351C19.75 13.3451 20.3148 12.7807 21 12.7807H24.5H25V12.2807V7.01754V6.51754H24.5H20.125C16.4702 6.51754 13.5 9.49697 13.5 13.1579V17.0439H10.5H10V17.5439V22.807Z" stroke="#699BF7"/>
</svg>
