<svg width="35" height="35" viewBox="0 0 35 35" fill="none" xmlns="http://www.w3.org/2000/svg">
<path d="M16.857 19.3758C16.4627 20.2874 15.6307 20.9157 14.6454 21.1852C13.4537 21.5112 12.1232 21.2862 11.2226 20.4695L11.2081 20.4563L11.1926 20.4444C10.2616 19.7242 9.79833 18.5564 9.83087 17.3702C9.8634 16.1839 10.3901 15.042 11.3586 14.3722L11.3727 14.3624L11.3861 14.3518C12.7233 13.2847 14.7005 13.5094 16.1533 14.513L16.4816 14.7397L16.7756 14.4699C17.4102 13.8876 17.9971 13.2643 18.5624 12.6239L18.9098 12.2302L18.4997 11.9024C17.1413 10.8165 15.4313 10.0107 13.5752 10.0895C9.75762 9.97124 6.27193 13.2922 6.19957 17.1089C5.95861 20.2393 8.01376 23.2768 10.8992 24.3771C13.7568 25.4773 17.4581 24.7525 19.3302 22.1221C20.5626 20.4618 20.8071 18.3615 20.6746 16.4613L20.6424 16.0002L20.1802 15.9961C17.9777 15.9766 15.7759 15.9805 13.5803 15.9883L13.0845 15.99L13.082 16.4858C13.0781 17.2716 13.082 18.0532 13.0859 18.8357L13.0859 18.8423L13.0883 19.3238L13.5696 19.3396C14.382 19.3662 15.2086 19.3691 16.0257 19.3719C16.3042 19.3729 16.5816 19.3739 16.857 19.3758ZM28.4044 18.957L28.8984 18.9511V18.457V16.5V16.003L28.4014 16C28.1805 15.9987 27.9606 15.9978 27.7414 15.997C27.4693 15.9959 27.198 15.9948 26.9267 15.9929L26.918 14.5166L26.915 14.0195H26.418H24.457H23.96L23.957 14.5166C23.9551 14.8438 23.9522 15.1712 23.9492 15.4994C23.9478 15.6625 23.9463 15.8257 23.945 15.989C23.4522 15.9905 22.9595 15.9942 22.4667 16L21.9727 16.0059V16.5V18.457V18.9511L22.4667 18.957C22.795 18.9609 23.1232 18.9638 23.4506 18.9668L23.4526 18.9668C23.6165 18.9682 23.7802 18.9697 23.9438 18.9713C23.944 19.0242 23.9442 19.0772 23.9444 19.1302C23.9462 19.5681 23.9479 20.0077 23.9532 20.4474L23.959 20.9414H24.4531H26.418H26.918V20.4414C26.918 19.9508 26.9202 19.4602 26.9245 18.9697C27.4173 18.9665 27.9108 18.9629 28.4044 18.957ZM0.5 17.5C0.5 8.11208 8.11208 0.5 17.5 0.5C26.8879 0.5 34.5 8.11208 34.5 17.5C34.5 26.8879 26.8879 34.5 17.5 34.5C8.11208 34.5 0.5 26.8879 0.5 17.5Z" stroke="#FD8733"/>
</svg>
