<svg width="35" height="35" viewBox="0 0 35 35" fill="none" xmlns="http://www.w3.org/2000/svg">
<path d="M17.5 0C7.83594 0 0 7.83594 0 17.5C0 27.1641 7.83594 35 17.5 35C27.1641 35 35 27.1641 35 17.5C35 7.83594 27.1641 0 17.5 0ZM18.9258 21.8281C17.2109 24.2422 13.7656 24.9453 11.0781 23.9102C8.38281 22.8828 6.46875 20.0352 6.69922 17.1328C6.75781 13.582 10.0273 10.4688 13.5781 10.5898C15.2813 10.5117 16.8828 11.25 18.1875 12.293C17.6289 12.9258 17.0547 13.5352 16.4375 14.1016C14.8711 13.0195 12.6406 12.7109 11.0742 13.9609C8.83203 15.5117 8.73047 19.1719 10.8867 20.8398C12.9844 22.7422 16.9492 21.7969 17.5312 18.8828C16.2187 18.8633 14.8984 18.8828 13.5859 18.8398C13.582 18.0547 13.5781 17.2734 13.582 16.4883C15.7773 16.4805 17.9766 16.4766 20.1758 16.4961C20.3047 18.3437 20.0586 20.3047 18.9258 21.8281V21.8281ZM28.3984 18.457C27.7422 18.4648 27.0859 18.4688 26.4297 18.4727C26.4219 19.1289 26.418 19.7852 26.418 20.4414H24.4531C24.4453 19.7852 24.4453 19.1328 24.4414 18.4766C23.7852 18.4687 23.1289 18.4648 22.4727 18.457V16.5C23.1289 16.4922 23.7852 16.4883 24.4414 16.4883C24.4453 15.832 24.4531 15.1758 24.457 14.5195H26.418L26.4297 16.4883C27.0859 16.4961 27.7422 16.4961 28.3984 16.5V18.457Z" fill="#FD8833"/>
</svg>
