<svg width="26" height="31" viewBox="0 0 26 31" fill="none" xmlns="http://www.w3.org/2000/svg">
<path d="M13.4971 15.5C14.3564 15.5 15.0924 15.1962 15.7049 14.5886C16.3174 13.981 16.6231 13.2515 16.6221 12.4C16.6221 11.5475 16.3158 10.8174 15.7033 10.2098C15.0908 9.60225 14.3554 9.29897 13.4971 9.3C12.6377 9.3 11.9018 9.6038 11.2893 10.2114C10.6768 10.819 10.371 11.5485 10.3721 12.4C10.3721 13.2525 10.6783 13.9825 11.2908 14.5901C11.9033 15.1978 12.6387 15.501 13.4971 15.5ZM13.4971 31C9.30436 27.4608 6.17311 24.1738 4.10332 21.1389C2.03353 18.104 0.998112 15.2944 0.99707 12.71C0.99707 8.835 2.25384 5.74792 4.76738 3.44875C7.28092 1.14958 10.1908 0 13.4971 0C16.8044 0 19.7148 1.14958 22.2283 3.44875C24.7419 5.74792 25.9981 8.835 25.9971 12.71C25.9971 15.2933 24.9617 18.103 22.8908 21.1389C20.82 24.1748 17.6887 27.4619 13.4971 31Z" fill="white"/>
</svg>
