<svg width="274" height="274" viewBox="0 0 274 274" fill="none" xmlns="http://www.w3.org/2000/svg">
<circle cx="137" cy="137" r="135.948" stroke="white" stroke-width="2.10365"/>
<path d="M68.8922 152.838C62.1605 152.838 58.7947 152.277 58.7947 151.156C58.7947 150.524 59.3206 150.209 60.3724 150.209H62.0553C62.3358 150.279 62.6163 150.314 62.8968 150.314C63.2474 150.314 63.598 150.314 63.9486 150.314C71.0309 150.314 77.6223 149.227 83.7229 147.053C89.9637 144.81 95.0826 142.075 99.0795 138.849C103.147 135.483 106.337 131.907 108.651 128.121C111.035 124.264 112.227 120.618 112.227 117.182C112.227 111.782 110.089 107.505 105.811 104.349C103.357 102.526 100.727 101.264 97.9225 100.563C95.1878 99.8616 92.3128 99.511 89.2976 99.511H88.5613C83.793 99.511 78.008 100.352 71.2062 102.035C64.4745 103.718 56.7612 106.173 48.0661 109.398C46.5935 109.398 45.8573 108.311 45.8573 106.137C45.8573 105.436 46.1728 104.945 46.8039 104.665C47.1545 104.525 47.7505 104.314 48.592 104.034C49.4335 103.683 50.8359 103.227 52.7993 102.666C59.1102 100.773 65.1758 99.3708 70.9958 98.4592C76.8159 97.4775 82.2854 96.9866 87.4043 96.9866C95.6085 96.9866 102.41 98.95 107.81 102.877C113.139 106.734 115.804 111.958 115.804 118.549C115.804 122.546 114.647 126.578 112.333 130.645C110.089 134.712 106.968 138.393 102.971 141.689C98.9744 145.055 93.9957 147.72 88.0354 149.683C82.0751 151.787 75.694 152.838 68.8922 152.838ZM56.4807 157.677C55.3587 157.677 54.4472 157.011 53.7459 155.678C53.0447 154.416 52.6941 152.558 52.6941 150.104C52.6941 141.479 57.6026 128.506 67.4196 111.186C67.4196 110.906 67.7703 110.169 68.4715 108.977C69.2428 107.785 69.8739 106.734 70.3648 105.822C71.2763 104.069 72.1178 103.192 72.8891 103.192C73.6605 103.192 74.537 103.403 75.5187 103.823C76.5004 104.174 76.9912 104.56 76.9912 104.98C76.0797 106.523 75.133 108.066 74.1513 109.609C73.2397 111.151 72.2931 112.694 71.3114 114.237C60.5828 132.819 55.2185 145.511 55.2185 152.313C55.2185 153.154 55.4639 154.171 55.9548 155.363C56.4456 156.555 56.691 157.291 56.691 157.572L56.4807 157.677ZM125.095 151.156C119.135 151.156 116.154 148.386 116.154 142.846C116.154 138.569 118.258 133.38 122.465 127.279C126.813 121.179 130.95 118.128 134.877 118.128C136.56 118.128 138.032 118.689 139.295 119.811C140.627 120.863 141.293 122.16 141.293 123.703C141.293 126.297 139.645 128.927 136.349 131.592C133.124 134.186 129.933 135.483 126.778 135.483C126.147 135.483 125.831 135.343 125.831 135.063L126.147 134.537C134.211 132.012 138.243 127.875 138.243 122.125C138.243 121.284 137.962 120.863 137.401 120.863C136.63 120.863 135.227 121.669 133.194 123.282C131.441 124.685 129.793 126.297 128.25 128.121C126.778 129.944 125.446 131.837 124.253 133.8C121.729 138.078 120.467 141.654 120.467 144.529C120.467 147.334 121.554 148.736 123.728 148.736C126.252 148.736 129.022 147.439 132.037 144.845C133.019 143.933 134.07 142.916 135.192 141.794C136.314 140.602 137.541 139.305 138.874 137.903C141.468 135.098 142.836 133.695 142.976 133.695C143.397 133.695 143.607 133.871 143.607 134.221C143.607 134.502 143.537 134.782 143.397 135.063C136.034 145.791 129.933 151.156 125.095 151.156ZM148.382 150.945C145.016 150.945 143.333 148.14 143.333 142.531C143.333 138.954 144.455 133.064 146.699 124.86C148.943 116.586 151.783 108.977 155.219 102.035C158.725 94.9531 161.81 91.412 164.475 91.412C166.018 91.412 167.56 91.9379 169.103 92.9897C170.646 93.9714 171.417 95.0583 171.417 96.2504C171.417 101.299 163.984 112.519 149.118 129.909C148.557 132.503 148.102 134.922 147.751 137.166C147.471 139.41 147.33 141.514 147.33 143.477C147.33 147.334 148.172 149.262 149.855 149.262L151.538 148.736C151.888 148.736 152.063 148.912 152.063 149.262C152.063 150.384 150.836 150.945 148.382 150.945ZM149.855 127.174C162.547 110.625 168.893 100.212 168.893 95.9348C168.893 95.0934 168.647 94.6726 168.156 94.6726C166.053 94.6726 163.002 98.4241 159.006 105.927C155.009 113.43 151.958 120.512 149.855 127.174ZM173.234 113.29C171.691 113.29 170.429 112.869 169.447 112.028C170.78 111.116 172.182 109.924 173.655 108.452C175.197 106.979 176.775 105.226 178.388 103.192C178.528 103.192 178.598 103.368 178.598 103.718L178.072 106.769C177.722 108.942 177.091 110.59 176.179 111.712C175.267 112.764 174.286 113.29 173.234 113.29ZM163.136 151.576C160.472 151.576 159.139 149.648 159.139 145.791C159.139 139.971 161.243 132.293 165.45 122.756C165.45 122.476 165.626 121.95 165.976 121.179C166.397 120.407 166.713 119.916 166.923 119.706C167.414 119.215 168.08 118.97 168.921 118.97C171.376 118.97 172.708 119.461 172.918 120.442C171.796 122.265 170.71 124.369 169.658 126.753C168.676 129.137 167.694 131.767 166.713 134.642C165.661 137.727 164.889 140.287 164.399 142.32C163.978 144.284 163.767 145.861 163.767 147.053C163.767 148.806 164.223 149.683 165.135 149.683C165.766 149.683 166.572 149.297 167.554 148.526C168.325 147.895 168.851 147.439 169.132 147.159C169.482 146.878 169.798 146.633 170.078 146.422C170.359 146.422 170.499 146.563 170.499 146.843C170.499 147.614 169.482 148.596 167.449 149.788C165.415 150.98 163.978 151.576 163.136 151.576ZM182.206 151.156C176.245 151.156 173.265 148.386 173.265 142.846C173.265 138.639 175.369 133.485 179.576 127.384C183.853 121.214 187.956 118.128 191.882 118.128C193.285 118.128 194.722 118.654 196.195 119.706C197.738 120.688 198.509 121.775 198.509 122.967C198.509 126.262 197.387 127.91 195.143 127.91C194.582 127.91 194.231 127.735 194.091 127.384C194.933 125.351 195.353 123.738 195.353 122.546C195.353 121.424 195.073 120.863 194.512 120.863C193.741 120.863 192.338 121.669 190.305 123.282C188.552 124.685 186.904 126.297 185.361 128.121C183.889 129.944 182.556 131.837 181.364 133.8C178.84 138.078 177.578 141.654 177.578 144.529C177.578 147.334 178.664 148.736 180.838 148.736C183.363 148.736 186.132 147.439 189.148 144.845C190.129 143.933 191.181 142.916 192.303 141.794C193.425 140.602 194.652 139.305 195.985 137.903C198.579 135.098 199.946 133.695 200.087 133.695C200.507 133.695 200.718 133.871 200.718 134.221C200.718 134.502 200.648 134.782 200.507 135.063C193.145 145.791 187.044 151.156 182.206 151.156ZM186.959 196.91C182.331 196.91 180.017 194.631 180.017 190.073C180.017 184.604 183.978 177.416 191.902 168.511C200.176 159.184 209.187 151.752 218.934 146.212C219.004 146.212 219.039 146.247 219.039 146.317C219.039 146.668 218.654 147.264 217.882 148.105C194.181 167.809 182.331 182.044 182.331 190.809C182.331 194.175 183.663 195.858 186.327 195.858C190.955 195.858 196.46 191.44 202.841 182.605C206.207 177.977 209.257 173.174 211.992 168.195C214.727 163.216 217.181 158.027 219.355 152.628C221.669 147.018 223.387 142.075 224.509 137.797C225.701 133.52 226.297 129.663 226.297 126.227C226.297 123.773 225.876 122.09 225.035 121.179C215.708 130.925 209.187 139.13 205.471 145.791C204.349 148.736 203.297 150.209 202.315 150.209C200.212 150.209 199.16 149.578 199.16 148.316C199.16 147.895 199.51 146.668 200.212 144.634C200.983 142.531 202.035 139.621 203.367 135.904L206.312 127.805C207.364 124.93 207.89 122.125 207.89 119.39V118.97C207.89 118.128 207.785 117.672 207.574 117.602C207.434 117.462 206.978 117.392 206.207 117.392C205.506 117.392 205.155 117.217 205.155 116.866C205.155 116.235 205.716 115.919 206.838 115.919C211.326 115.919 213.57 117.602 213.57 120.968C213.57 122.581 211.466 128.541 207.259 138.849C209.643 135.483 213.184 131.311 217.882 126.333C222.65 121.284 225.596 118.759 226.717 118.759C226.717 119.32 226.437 119.881 225.876 120.442C229.031 120.723 230.714 121.424 230.925 122.546C231.065 123.458 231.17 124.299 231.24 125.07C231.31 125.842 231.346 126.508 231.346 127.069C231.346 133.8 229.031 142.706 224.403 153.785C219.285 165.846 213.079 176.049 205.786 184.393C198.494 192.738 192.218 196.91 186.959 196.91Z" fill="white"/>
</svg>
