<svg width="30" height="36" viewBox="0 0 30 36" fill="none" xmlns="http://www.w3.org/2000/svg">
<path d="M7.49993 15.8615C7.92475 15.8615 8.33216 15.6927 8.63255 15.3923C8.93294 15.0919 9.1017 14.6845 9.1017 14.2597C9.1017 13.8349 8.93294 13.4275 8.63255 13.1271C8.33216 12.8267 7.92475 12.6579 7.49993 12.6579C7.07511 12.6579 6.6677 12.8267 6.36731 13.1271C6.06692 13.4275 5.89816 13.8349 5.89816 14.2597C5.89816 14.6845 6.06692 15.0919 6.36731 15.3923C6.6677 15.6927 7.07511 15.8615 7.49993 15.8615ZM15.4777 18.5464C15.4777 18.9713 15.309 19.3787 15.0086 19.6791C14.7082 19.9795 14.3008 20.1482 13.8759 20.1482C13.4511 20.1482 13.0437 19.9795 12.7433 19.6791C12.4429 19.3787 12.2742 18.9713 12.2742 18.5464C12.2742 18.1216 12.4429 17.7142 12.7433 17.4138C13.0437 17.1134 13.4511 16.9447 13.8759 16.9447C14.3008 16.9447 14.7082 17.1134 15.0086 17.4138C15.309 17.7142 15.4777 18.1216 15.4777 18.5464ZM7.5085 25.5171C7.71983 25.5171 7.9291 25.4755 8.12434 25.3946C8.31959 25.3137 8.49699 25.1952 8.64643 25.0457C8.79586 24.8963 8.9144 24.7189 8.99528 24.5237C9.07615 24.3284 9.11777 24.1191 9.11777 23.9078C9.11777 23.6965 9.07615 23.4872 8.99528 23.292C8.9144 23.0967 8.79586 22.9193 8.64643 22.7699C8.49699 22.6205 8.31959 22.5019 8.12434 22.421C7.9291 22.3402 7.71983 22.2985 7.5085 22.2985C7.0817 22.2985 6.67237 22.4681 6.37058 22.7699C6.06878 23.0717 5.89923 23.481 5.89923 23.9078C5.89923 24.3346 6.06878 24.7439 6.37058 25.0457C6.67237 25.3475 7.0817 25.5171 7.5085 25.5171ZM0 5.04871C0 2.7023 1.91784 0.715889 4.34996 0.865887C13.8792 1.45302 22.2362 4.65871 28.7826 10.9094C30.6404 12.6815 30.274 15.5765 28.3476 17.055C25.3498 19.3692 22.3319 21.6572 19.2941 23.9185V27.6471C19.2941 29.1835 18.1048 30.8613 16.0799 30.8613C15.7172 30.8621 15.3569 30.8042 15.0127 30.6899V30.8677C15.0127 32.3956 13.8213 34.0627 11.792 34.0627C10.1763 34.0627 9.11134 32.9999 8.73635 31.8127C7.56207 32.6913 6.27851 33.647 5.1321 34.4999C3.01069 36.0791 0 34.5641 0 31.9285V5.04871ZM15.0106 27.6471C15.0106 28.2021 15.4284 28.7185 16.0799 28.7185C16.7334 28.7185 17.1513 28.1978 17.1513 27.6471V23.3743C17.1514 23.2054 17.1915 23.0389 17.2682 22.8885C17.3449 22.738 17.4561 22.6078 17.5927 22.5085C19.2641 21.2957 22.1098 19.1336 24.6298 17.2072C18.8591 11.7151 10.7699 8.45582 2.14284 8.38725V31.9263C2.14343 32.1246 2.19901 32.3188 2.30341 32.4873C2.4078 32.6558 2.55691 32.7921 2.73414 32.8809C2.91137 32.9698 3.10977 33.0077 3.30728 32.9905C3.50478 32.9733 3.69363 32.9016 3.85282 32.7834C5.53709 31.5277 7.5235 30.0492 9.01492 28.9306C9.1741 28.8112 9.36338 28.7385 9.56155 28.7207C9.75972 28.7028 9.95895 28.7405 10.1369 28.8295C10.3149 28.9184 10.4646 29.0552 10.5692 29.2245C10.6738 29.3937 10.7292 29.5888 10.7292 29.7878V30.8677C10.7292 31.397 11.1363 31.922 11.792 31.922C11.9324 31.9255 12.0721 31.9007 12.2027 31.8492C12.3334 31.7977 12.4524 31.7205 12.5527 31.6222C12.653 31.5239 12.7326 31.4065 12.7867 31.2769C12.8408 31.1473 12.8684 31.0082 12.8677 30.8677V27.6471C12.8677 27.3629 12.9806 27.0904 13.1815 26.8895C13.3825 26.6885 13.655 26.5756 13.9392 26.5756C14.2233 26.5756 14.4958 26.6885 14.6968 26.8895C14.8977 27.0904 15.0106 27.3629 15.0106 27.6471ZM27.0405 15.3579C28.0369 14.5929 28.1119 13.2301 27.3019 12.4565C21.1798 6.61298 13.3306 3.56372 4.21925 3.0023C3.10711 2.93373 2.14284 3.84657 2.14284 5.04871V6.24441C11.4149 6.31512 20.147 9.85938 26.3505 15.8872L27.0405 15.3579Z" fill="#888888"/>
</svg>
