<svg width="25" height="21" viewBox="0 0 25 21" fill="none" xmlns="http://www.w3.org/2000/svg">
<path d="M2.5 20.5C1.8125 20.5 1.22375 20.255 0.733752 19.765C0.243752 19.275 -0.000831211 18.6867 2.12224e-06 18V3C2.12224e-06 2.3125 0.245002 1.72375 0.735002 1.23375C1.225 0.743752 1.81334 0.499169 2.5 0.500002H22.5C23.1875 0.500002 23.7762 0.745002 24.2662 1.235C24.7562 1.725 25.0008 2.31334 25 3V18C25 18.6875 24.755 19.2762 24.265 19.7662C23.775 20.2562 23.1867 20.5008 22.5 20.5H2.5ZM12.5 11.5312C12.6042 11.5312 12.7137 11.5154 12.8287 11.4838C12.9437 11.4521 13.0529 11.4054 13.1562 11.3438L22 5.8125C22.1667 5.70833 22.2917 5.57792 22.375 5.42125C22.4583 5.26458 22.5 5.09292 22.5 4.90625C22.5 4.48958 22.3229 4.17708 21.9688 3.96875C21.6146 3.76042 21.25 3.77083 20.875 4L12.5 9.25L4.125 4C3.75 3.77083 3.38542 3.76583 3.03125 3.985C2.67709 4.20417 2.5 4.51125 2.5 4.90625C2.5 5.11458 2.54167 5.29708 2.625 5.45375C2.70833 5.61042 2.83333 5.73 3 5.8125L11.8438 11.3438C11.9479 11.4063 12.0575 11.4533 12.1725 11.485C12.2875 11.5167 12.3967 11.5321 12.5 11.5312Z" fill="white"/>
</svg>
