<svg width="19" height="22" viewBox="0 0 19 22" fill="none" xmlns="http://www.w3.org/2000/svg">
<path d="M2 19V9H14V12.09C14.33 12.04 14.66 12 15 12C15.34 12 15.67 12.04 16 12.09V9C16 8.46957 15.7893 7.96086 15.4142 7.58579C15.0391 7.21071 14.5304 7 14 7H13V5C13 2.24 10.76 0 8 0C5.24 0 3 2.24 3 5V7H2C0.89 7 0 7.89 0 9V19C0 19.5304 0.210714 20.0391 0.585786 20.4142C0.960859 20.7893 1.46957 21 2 21H9.81C9.46 20.39 9.22 19.72 9.09 19H2ZM5 5C5 3.34 6.34 2 8 2C9.66 2 11 3.34 11 5V7H5V5ZM10 14C10 15.11 9.11 16 8 16C7.46957 16 6.96086 15.7893 6.58579 15.4142C6.21071 15.0391 6 14.5304 6 14C6 12.89 6.89 12 8 12C8.53043 12 9.03914 12.2107 9.41421 12.5858C9.78929 12.9609 10 13.4696 10 14ZM19 17V19H16V22H14V19H11V17H14V14H16V17H19Z" fill="#656565"/>
</svg>
