<svg width="31" height="29" viewBox="0 0 31 29" fill="none" xmlns="http://www.w3.org/2000/svg">
<path d="M15.5646 0L19.047 10.7102H30.316L21.1992 17.3295L24.6815 28.0398L15.5646 21.4205L6.44783 28.0398L9.93015 17.3295L0.813334 10.7102H12.0823L15.5646 0Z" fill="#FFA92F"/>
<path d="M15.5646 0L19.047 10.7102H30.316L21.1992 17.3295L24.6815 28.0398L15.5646 21.4205L6.44783 28.0398L9.93015 17.3295L0.813334 10.7102H12.0823L15.5646 0Z" fill="#FFA92F"/>
<path d="M15.5646 0L19.047 10.7102H30.316L21.1992 17.3295L24.6815 28.0398L15.5646 21.4205L6.44783 28.0398L9.93015 17.3295L0.813334 10.7102H12.0823L15.5646 0Z" fill="#FFA92F"/>
<path d="M15.5646 0L19.047 10.7102H30.316L21.1992 17.3295L24.6815 28.0398L15.5646 21.4205L6.44783 28.0398L9.93015 17.3295L0.813334 10.7102H12.0823L15.5646 0Z" fill="#FFA92F"/>
</svg>
