<svg width="40" height="18" viewBox="0 0 40 18" fill="none" xmlns="http://www.w3.org/2000/svg">
<path d="M31 3.80789e-05C28.6 3.80789e-05 26.3333 0.933371 24.7167 2.55004L13 12.95C11.9333 14.0167 10.5167 14.6 9 14.6C5.88333 14.6 3.33333 12.0834 3.33333 8.96671C3.33333 5.85004 5.88333 3.33337 9 3.33337C10.5167 3.33337 11.9333 3.9167 13.0667 5.05004L14.95 6.7167L17.5 4.48337L15.3667 2.63337C14.532 1.79559 13.5397 1.13151 12.4469 0.679522C11.3541 0.227532 10.1826 -0.0034114 9 3.80789e-05C4.03333 3.80789e-05 0 4.03337 0 8.96671C0 13.9 4.03333 17.9334 9 17.9334C11.4 17.9334 13.6667 17 15.2833 15.3834L27 4.98337C28.0667 3.9167 29.4833 3.33337 31 3.33337C34.1167 3.33337 36.6667 5.85004 36.6667 8.96671C36.6667 12.0834 34.1167 14.6 31 14.6C29.5 14.6 28.0667 14.0167 26.9333 12.8834L25 11.2L22.5 13.4334L24.6333 15.3C25.4702 16.1336 26.4634 16.7938 27.5559 17.2429C28.6484 17.6919 29.8188 17.9209 31 17.9167C35.9667 17.9167 40 13.9 40 8.96671C40 3.96671 35.9667 3.80789e-05 31 3.80789e-05Z" fill="#FFA92F"/>
</svg>
