<svg width="35" height="35" viewBox="0 0 35 35" fill="none" xmlns="http://www.w3.org/2000/svg">
<path d="M17.5 0C7.85126 0 0 7.84908 0 17.4989C0 27.1487 7.85126 34.9978 17.5 34.9978C27.1487 34.9978 35 27.1487 35 17.4989C35 7.84908 27.1487 0 17.5 0ZM17.5 33.8322C8.49408 33.8322 1.16776 26.5048 1.16776 17.4989C1.16776 8.49298 8.49408 1.16558 17.5 1.16558C26.5059 1.16558 33.8322 8.49298 33.8322 17.4989C33.8322 26.5048 26.5059 33.8322 17.5 33.8322Z" fill="#9747FF"/>
<path d="M27.0989 12.0925C27.22 11.8684 27.3197 11.6335 27.3969 11.3908C27.4326 11.2782 27.4333 11.1574 27.3989 11.0444C27.3646 10.9314 27.2968 10.8315 27.2044 10.7578C27.1121 10.6842 26.9996 10.6402 26.8818 10.6319C26.7639 10.6235 26.6464 10.651 26.5445 10.7109C25.9853 11.0431 25.3799 11.2906 24.7481 11.4453C23.9812 10.7532 22.9852 10.3694 21.9521 10.3682C21.3908 10.3686 20.8354 10.4824 20.3192 10.7026C19.8029 10.9229 19.3365 11.2451 18.9478 11.65C18.5591 12.0549 18.2561 12.5341 18.0571 13.0589C17.8581 13.5837 17.7671 14.1433 17.7896 14.7041C15.3352 14.3952 13.0938 13.1532 11.5306 11.2358C11.4708 11.1632 11.3942 11.106 11.3075 11.0693C11.2208 11.0326 11.1266 11.0173 11.0327 11.0248C10.9389 11.0323 10.8482 11.0624 10.7685 11.1124C10.6887 11.1624 10.6222 11.231 10.5746 11.3122C10.2167 11.9266 10.0221 12.6224 10.0095 13.3333C9.9969 14.0442 10.1667 14.7465 10.5026 15.3732C10.4202 15.3871 10.341 15.4159 10.269 15.4583C10.1808 15.5145 10.1081 15.5921 10.0578 15.6839C10.0074 15.7756 9.98099 15.8786 9.98091 15.9832C9.98091 17.2219 10.5321 18.3591 11.4204 19.1318L11.3822 19.17C11.3152 19.2459 11.269 19.3379 11.2483 19.437C11.2277 19.5362 11.2332 19.639 11.2644 19.7353C11.4496 20.3132 11.7589 20.8437 12.1706 21.2895C12.5823 21.7354 13.0865 22.0858 13.6479 22.3164C12.495 22.8788 11.2047 23.0982 9.93071 22.9483C9.79975 22.935 9.66806 22.9654 9.55628 23.0349C9.4445 23.1045 9.35894 23.2091 9.313 23.3325C9.26888 23.4567 9.26806 23.5923 9.31065 23.7171C9.35324 23.8419 9.43675 23.9486 9.54764 24.02C11.2796 25.1316 13.2946 25.7222 15.3526 25.7215C22.0972 25.7215 26.1287 20.2428 26.1287 14.9464L26.1276 14.7674C26.7813 14.2571 27.349 13.6455 27.8094 12.9558C27.8791 12.8515 27.9134 12.7276 27.9072 12.6023C27.901 12.477 27.8546 12.3571 27.7749 12.2602C27.6951 12.1634 27.5864 12.0948 27.4646 12.0646C27.3429 12.0344 27.2147 12.0442 27.0989 12.0925ZM25.1945 14.0079C25.1153 14.0648 25.0516 14.1407 25.0093 14.2286C24.967 14.3165 24.9474 14.4136 24.9522 14.511C24.9588 14.655 24.962 14.8013 24.962 14.9453C24.962 19.6688 21.3682 24.5548 15.3537 24.5548C14.281 24.5553 13.2159 24.3752 12.2029 24.0222C13.4161 23.7897 14.5557 23.2695 15.5261 22.5052C15.6206 22.4307 15.6897 22.3289 15.7241 22.2136C15.7585 22.0983 15.7565 21.9753 15.7182 21.8612C15.68 21.7471 15.6075 21.6477 15.5106 21.5764C15.4137 21.5051 15.2972 21.4655 15.1769 21.463C14.7063 21.454 14.2445 21.3345 13.8285 21.1142C13.4126 20.894 13.0543 20.579 12.7824 20.1948C13.0586 20.1762 13.3292 20.1304 13.5922 20.0595C13.7195 20.0254 13.8315 19.9492 13.9099 19.8433C13.9883 19.7374 14.0286 19.608 14.024 19.4763C14.0194 19.3446 13.9704 19.2184 13.8848 19.1181C13.7993 19.0179 13.6823 18.9496 13.5529 18.9244C13.0215 18.8163 12.5294 18.5658 12.1294 18.1996C11.7293 17.8334 11.4363 17.3653 11.2818 16.8454C11.5721 16.9185 11.8701 16.9611 12.168 16.9709C12.4245 16.9698 12.6624 16.8127 12.7421 16.566C12.8217 16.3194 12.7279 16.0476 12.5107 15.9036C11.9972 15.5614 11.6018 15.0691 11.3785 14.4939C11.1553 13.9186 11.115 13.2885 11.2633 12.6895C13.159 14.6346 15.7188 15.793 18.4313 15.933C18.6234 15.9341 18.7915 15.8654 18.9083 15.7246C19.025 15.5838 19.0698 15.3972 19.0283 15.2182C18.879 14.5754 18.9458 13.9013 19.2183 13.3002C19.4907 12.6992 19.9537 12.2047 20.5355 11.8933C21.1173 11.5819 21.7855 11.4709 22.4368 11.5775C23.088 11.6842 23.686 12.0025 24.1381 12.4832C24.2058 12.5555 24.2909 12.6094 24.3852 12.6397C24.4795 12.6701 24.58 12.6759 24.6772 12.6568C24.8573 12.6207 25.0352 12.5793 25.2109 12.5312C25.1317 12.5905 25.0493 12.6456 24.9642 12.696C24.8511 12.7654 24.7649 12.8712 24.7199 12.996C24.6749 13.1209 24.6738 13.2574 24.7168 13.3829C24.7597 13.5085 24.8442 13.6157 24.9562 13.6868C25.0683 13.758 25.2012 13.7888 25.3331 13.7743L25.5317 13.7492C25.4224 13.8393 25.3099 13.9256 25.1945 14.0079Z" fill="#9747FF"/>
</svg>
