<svg width="35" height="35" viewBox="0 0 35 35" fill="none" xmlns="http://www.w3.org/2000/svg">
<path d="M17.5 0C7.85126 0 0 7.84908 0 17.4989C0 27.1487 7.85126 34.9978 17.5 34.9978C27.1487 34.9978 35 27.1487 35 17.4989C35 7.84908 27.1487 0 17.5 0ZM17.5 33.8322C8.49408 33.8322 1.16776 26.5048 1.16776 17.4989C1.16776 8.49298 -3.5 34.5 17.5 33.8322C26.5059 33.8322 33.8322 26.5 33.8322 17.4989C33.8322 26.5048 26.5059 33.8322 17.5 33.8322Z" fill="#9747FF"/>
<path d="M27.0989 12.0925C27.22 11.8684 27.3197 11.6335 27.3969 11.3908C27.4326 11.2782 27.4333 11.1574 27.3989 11.0444C27.3646 10.9314 27.2968 10.8315 27.2044 10.7578C27.1121 10.6842 26.9996 10.6402 26.8818 10.6319C26.764 10.6235 26.6464 10.651 26.5445 10.7109C25.9853 11.0431 25.3799 11.2906 24.7481 11.4453C23.9812 10.7532 22.9852 10.3694 21.9521 10.3682C21.3908 10.3686 20.8354 10.4824 20.3192 10.7026C19.8029 10.9229 19.3365 11.2451 18.9478 11.65C18.5591 12.0549 18.2561 12.5341 18.0571 13.0589C17.8581 13.5837 17.7671 14.1433 17.7896 14.7041C15.3352 14.3952 13.0938 13.1532 11.5306 11.2358C11.4708 11.1632 11.3942 11.106 11.3075 11.0693C11.2208 11.0326 11.1266 11.0173 11.0327 11.0248C10.9389 11.0323 10.8482 11.0624 10.7685 11.1124C10.6887 11.1624 10.6222 11.231 10.5746 11.3122C10.2167 11.9266 10.0221 12.6224 10.0095 13.3333C9.9969 14.0442 10.1667 14.7465 10.5026 15.3732C10.4202 15.3871 10.341 15.4159 10.269 15.4583C10.1808 15.5145 10.1081 15.5921 10.0578 15.6839C10.0074 15.7756 9.98099 15.8786 9.98091 15.9832C9.98091 17.2219 10.5321 18.3591 11.4204 19.1318L11.3822 19.17C11.3152 19.2459 11.269 19.3379 11.2483 19.437C11.2277 19.5362 11.2332 19.639 11.2644 19.7353C11.4496 20.3132 11.7589 20.8437 12.1706 21.2895C12.5823 21.7354 13.0865 22.0858 13.6479 22.3164C12.495 22.8788 11.2047 23.0982 9.93071 22.9483C9.79975 22.935 9.66806 22.9654 9.55628 23.0349C9.4445 23.1045 9.35894 23.2091 9.313 23.3325C9.26888 23.4567 9.26806 23.5923 9.31065 23.7171C9.35324 23.8419 9.43676 23.9486 9.54764 24.02C11.2796 25.1316 13.2946 25.7222 15.3526 25.7215C22.0972 25.7215 26.1287 20.2428 26.1287 14.9464L26.1276 14.7674C26.7813 14.2571 27.349 13.6455 27.8094 12.9558C27.8791 12.8515 27.9134 12.7276 27.9072 12.6023C27.901 12.477 27.8546 12.3571 27.7749 12.2602C27.6951 12.1634 27.5864 12.0948 27.4646 12.0646C27.3429 12.0344 27.2147 12.0442 27.0989 12.0925Z" fill="white"/>
</svg>
